<?xml version="1.0" encoding="utf-8" standalone="no"?>
<!DOCTYPE svg PUBLIC "-//W3C//DTD SVG 1.1//EN"
  "http://www.w3.org/Graphics/SVG/1.1/DTD/svg11.dtd">
<!-- Created with matplotlib (http://matplotlib.org/) -->
<svg height="576pt" version="1.1" viewBox="0 0 864 576" width="864pt" xmlns="http://www.w3.org/2000/svg" xmlns:xlink="http://www.w3.org/1999/xlink">
 <defs>
  <style type="text/css">
*{stroke-linecap:butt;stroke-linejoin:round;}
  </style>
 </defs>
 <g id="figure_1">
  <g id="patch_1">
   <path d="M 0 576 
L 864 576 
L 864 0 
L 0 0 
z
" style="fill:#ffffff;"/>
  </g>
  <g id="axes_1">
   <g id="patch_2">
    <path d="M 136.94 170.923824 
L 817.44 170.923824 
L 817.44 46.56 
L 136.94 46.56 
z
" style="fill:#ffffff;"/>
   </g>
   <g id="matplotlib.axis_1">
    <g id="xtick_1">
     <g id="line2d_1">
      <path clip-path="url(#p84cd39f7c9)" d="M 167.871818 170.923824 
L 167.871818 46.56 
" style="fill:none;opacity:0.5;stroke:#000000;stroke-dasharray:0.5,0.825;stroke-dashoffset:0;stroke-width:0.5;"/>
     </g>
     <g id="line2d_2">
      <defs>
       <path d="M 0 0 
L 0 12 
" id="md41fd2cb13" style="stroke:#000000;stroke-width:2;"/>
      </defs>
      <g>
       <use style="stroke:#000000;stroke-width:2;" x="167.871818" xlink:href="#md41fd2cb13" y="170.923824"/>
      </g>
     </g>
     <g id="text_1">
      <!-- 0 -->
      <defs>
       <path d="M 47.59375 33 
Q 47.59375 26.296875 46.296875 20.34375 
Q 45 14.40625 42.453125 9.40625 
Q 39.90625 4.40625 35.40625 1.5 
Q 30.90625 -1.40625 25 -1.40625 
Q 18.90625 -1.40625 14.296875 1.6875 
Q 9.703125 4.796875 7.203125 10 
Q 4.703125 15.203125 3.546875 21.09375 
Q 2.40625 27 2.40625 33.59375 
Q 2.40625 42.90625 4.703125 50.34375 
Q 7 57.796875 12.34375 62.6875 
Q 17.703125 67.59375 25.40625 67.59375 
Q 35.203125 67.59375 41.390625 58 
Q 47.59375 48.40625 47.59375 33 
z
M 38 32.5 
Q 38 48.296875 34.640625 56.640625 
Q 31.296875 65 24.796875 65 
Q 18.59375 65 15.296875 56.59375 
Q 12 48.203125 12 32.90625 
Q 12 17.5 15.296875 9.34375 
Q 18.59375 1.203125 25 1.203125 
Q 31.296875 1.203125 34.640625 9.34375 
Q 38 17.5 38 32.5 
z
" id="STIXGeneral-Regular-30"/>
      </defs>
      <g transform="translate(159.871818 208.278824)scale(0.32 -0.32)">
       <use xlink:href="#STIXGeneral-Regular-30"/>
      </g>
     </g>
    </g>
    <g id="xtick_2">
     <g id="line2d_3">
      <path clip-path="url(#p84cd39f7c9)" d="M 272.725439 170.923824 
L 272.725439 46.56 
" style="fill:none;opacity:0.5;stroke:#000000;stroke-dasharray:0.5,0.825;stroke-dashoffset:0;stroke-width:0.5;"/>
     </g>
     <g id="line2d_4">
      <g>
       <use style="stroke:#000000;stroke-width:2;" x="272.725439" xlink:href="#md41fd2cb13" y="170.923824"/>
      </g>
     </g>
     <g id="text_2">
      <!-- 10 -->
      <defs>
       <path d="M 39.40625 0 
L 11.796875 0 
L 11.796875 1.5 
Q 17.296875 1.796875 19.296875 3.546875 
Q 21.296875 5.296875 21.296875 9.5 
L 21.296875 54.40625 
Q 21.296875 59.296875 18.296875 59.296875 
Q 16.90625 59.296875 13.796875 58.09375 
L 11.09375 57.09375 
L 11.09375 58.5 
L 29 67.59375 
L 29.90625 67.296875 
L 29.90625 7.59375 
Q 29.90625 4.296875 31.90625 2.890625 
Q 33.90625 1.5 39.40625 1.5 
z
" id="STIXGeneral-Regular-31"/>
      </defs>
      <g transform="translate(256.725439 208.278824)scale(0.32 -0.32)">
       <use xlink:href="#STIXGeneral-Regular-31"/>
       <use x="49.999985" xlink:href="#STIXGeneral-Regular-30"/>
      </g>
     </g>
    </g>
    <g id="xtick_3">
     <g id="line2d_5">
      <path clip-path="url(#p84cd39f7c9)" d="M 377.57906 170.923824 
L 377.57906 46.56 
" style="fill:none;opacity:0.5;stroke:#000000;stroke-dasharray:0.5,0.825;stroke-dashoffset:0;stroke-width:0.5;"/>
     </g>
     <g id="line2d_6">
      <g>
       <use style="stroke:#000000;stroke-width:2;" x="377.57906" xlink:href="#md41fd2cb13" y="170.923824"/>
      </g>
     </g>
     <g id="text_3">
      <!-- 20 -->
      <defs>
       <path d="M 47.40625 13.703125 
L 42 0 
L 2.90625 0 
L 2.90625 1.203125 
L 20.703125 20.09375 
Q 27.703125 27.40625 30.703125 33.5 
Q 33.703125 39.59375 33.703125 46.09375 
Q 33.703125 52.796875 30 56.5 
Q 26.296875 60.203125 19.796875 60.203125 
Q 14.40625 60.203125 11.25 57.390625 
Q 8.09375 54.59375 5.09375 47.203125 
L 3 47.703125 
Q 4.703125 57 9.84375 62.296875 
Q 15 67.59375 23.796875 67.59375 
Q 32.09375 67.59375 37.1875 62.59375 
Q 42.296875 57.59375 42.296875 50 
Q 42.296875 38.703125 29.5 25.203125 
L 13 7.59375 
L 36.40625 7.59375 
Q 39.703125 7.59375 41.640625 8.890625 
Q 43.59375 10.203125 46 14.296875 
z
" id="STIXGeneral-Regular-32"/>
      </defs>
      <g transform="translate(361.57906 208.278824)scale(0.32 -0.32)">
       <use xlink:href="#STIXGeneral-Regular-32"/>
       <use x="49.999985" xlink:href="#STIXGeneral-Regular-30"/>
      </g>
     </g>
    </g>
    <g id="xtick_4">
     <g id="line2d_7">
      <path clip-path="url(#p84cd39f7c9)" d="M 482.432681 170.923824 
L 482.432681 46.56 
" style="fill:none;opacity:0.5;stroke:#000000;stroke-dasharray:0.5,0.825;stroke-dashoffset:0;stroke-width:0.5;"/>
     </g>
     <g id="line2d_8">
      <g>
       <use style="stroke:#000000;stroke-width:2;" x="482.432681" xlink:href="#md41fd2cb13" y="170.923824"/>
      </g>
     </g>
     <g id="text_4">
      <!-- 30 -->
      <defs>
       <path d="M 6.09375 51 
L 4.5 51.40625 
Q 6.796875 58.90625 11.6875 63.25 
Q 16.59375 67.59375 24.09375 67.59375 
Q 31.09375 67.59375 35.390625 63.796875 
Q 39.703125 60 39.703125 53.90625 
Q 39.703125 45.703125 30.40625 40.09375 
Q 35.90625 37.703125 38.703125 34.796875 
Q 43.09375 29.90625 43.09375 21.90625 
Q 43.09375 13.90625 38.5 7.90625 
Q 35.09375 3.296875 28.75 0.9375 
Q 22.40625 -1.40625 15.296875 -1.40625 
Q 4.09375 -1.40625 4.09375 4.296875 
Q 4.09375 5.90625 5.296875 6.90625 
Q 6.5 7.90625 8.203125 7.90625 
Q 10.703125 7.90625 14.296875 5.296875 
Q 18.703125 2.203125 22.90625 2.203125 
Q 28.40625 2.203125 32.15625 6.640625 
Q 35.90625 11.09375 35.90625 17.5 
Q 35.90625 29 25.5 32 
Q 22.40625 33 15.296875 33 
L 15.296875 34.40625 
Q 20.90625 36.296875 23.703125 38 
Q 31.796875 42.59375 31.796875 51.40625 
Q 31.796875 56.40625 28.9375 59 
Q 26.09375 61.59375 21 61.59375 
Q 12 61.59375 6.09375 51 
z
" id="STIXGeneral-Regular-33"/>
      </defs>
      <g transform="translate(466.432681 208.278824)scale(0.32 -0.32)">
       <use xlink:href="#STIXGeneral-Regular-33"/>
       <use x="49.999985" xlink:href="#STIXGeneral-Regular-30"/>
      </g>
     </g>
    </g>
    <g id="xtick_5">
     <g id="line2d_9">
      <path clip-path="url(#p84cd39f7c9)" d="M 587.286302 170.923824 
L 587.286302 46.56 
" style="fill:none;opacity:0.5;stroke:#000000;stroke-dasharray:0.5,0.825;stroke-dashoffset:0;stroke-width:0.5;"/>
     </g>
     <g id="line2d_10">
      <g>
       <use style="stroke:#000000;stroke-width:2;" x="587.286302" xlink:href="#md41fd2cb13" y="170.923824"/>
      </g>
     </g>
     <g id="text_5">
      <!-- 40 -->
      <defs>
       <path d="M 47.296875 16.703125 
L 37 16.703125 
L 37 0 
L 29.203125 0 
L 29.203125 16.703125 
L 1.203125 16.703125 
L 1.203125 23.09375 
L 32.59375 67.59375 
L 37 67.59375 
L 37 23.09375 
L 47.296875 23.09375 
z
M 29.203125 23.09375 
L 29.203125 57.40625 
L 5.203125 23.09375 
z
" id="STIXGeneral-Regular-34"/>
      </defs>
      <g transform="translate(571.286302 208.278824)scale(0.32 -0.32)">
       <use xlink:href="#STIXGeneral-Regular-34"/>
       <use x="49.999985" xlink:href="#STIXGeneral-Regular-30"/>
      </g>
     </g>
    </g>
    <g id="xtick_6">
     <g id="line2d_11">
      <path clip-path="url(#p84cd39f7c9)" d="M 692.139923 170.923824 
L 692.139923 46.56 
" style="fill:none;opacity:0.5;stroke:#000000;stroke-dasharray:0.5,0.825;stroke-dashoffset:0;stroke-width:0.5;"/>
     </g>
     <g id="line2d_12">
      <g>
       <use style="stroke:#000000;stroke-width:2;" x="692.139923" xlink:href="#md41fd2cb13" y="170.923824"/>
      </g>
     </g>
     <g id="text_6">
      <!-- 50 -->
      <defs>
       <path d="M 43.796875 68.09375 
L 40.203125 59.59375 
Q 39.59375 58.296875 37.5 58.296875 
L 18.09375 58.296875 
L 14.09375 49.796875 
Q 25.09375 47.703125 30 45.25 
Q 34.90625 42.796875 39.09375 37 
Q 42.59375 32.203125 42.59375 24.296875 
Q 42.59375 17.09375 40.25 12.1875 
Q 37.90625 7.296875 32.796875 3.5 
Q 26 -1.40625 15.796875 -1.40625 
Q 10.09375 -1.40625 6.59375 0.296875 
Q 3.09375 2 3.09375 4.796875 
Q 3.09375 8.59375 7.59375 8.59375 
Q 11.203125 8.59375 15 5.5 
Q 18.90625 2.296875 22.09375 2.296875 
Q 27.296875 2.296875 31.4375 7.5 
Q 35.59375 12.703125 35.59375 19.203125 
Q 35.59375 28.796875 28.90625 34.203125 
Q 20.203125 41.203125 7.59375 41.203125 
Q 6.40625 41.203125 6.40625 42 
L 6.5 42.5 
L 17.40625 66.203125 
L 38.09375 66.203125 
Q 39.796875 66.203125 40.75 66.703125 
Q 41.703125 67.203125 42.90625 68.796875 
z
" id="STIXGeneral-Regular-35"/>
      </defs>
      <g transform="translate(676.139923 208.278824)scale(0.32 -0.32)">
       <use xlink:href="#STIXGeneral-Regular-35"/>
       <use x="49.999985" xlink:href="#STIXGeneral-Regular-30"/>
      </g>
     </g>
    </g>
    <g id="xtick_7">
     <g id="line2d_13">
      <path clip-path="url(#p84cd39f7c9)" d="M 796.993544 170.923824 
L 796.993544 46.56 
" style="fill:none;opacity:0.5;stroke:#000000;stroke-dasharray:0.5,0.825;stroke-dashoffset:0;stroke-width:0.5;"/>
     </g>
     <g id="line2d_14">
      <g>
       <use style="stroke:#000000;stroke-width:2;" x="796.993544" xlink:href="#md41fd2cb13" y="170.923824"/>
      </g>
     </g>
     <g id="text_7">
      <!-- 60 -->
      <defs>
       <path d="M 44.59375 68.40625 
L 44.796875 66.796875 
Q 33 64.90625 25.09375 57.25 
Q 17.203125 49.59375 15.203125 38.296875 
Q 21 42.796875 27.90625 42.796875 
Q 36.703125 42.796875 41.75 37.1875 
Q 46.796875 31.59375 46.796875 21.90625 
Q 46.796875 12.09375 41.703125 5.90625 
Q 35.796875 -1.40625 25.796875 -1.40625 
Q 13.59375 -1.40625 8.09375 8.703125 
Q 3.40625 17.296875 3.40625 27.90625 
Q 3.40625 44.296875 14.296875 55.5 
Q 20.5 61.90625 27.046875 64.546875 
Q 33.59375 67.203125 44.59375 68.40625 
z
M 37.796875 18.796875 
Q 37.796875 38.203125 24.296875 38.203125 
Q 19.296875 38.203125 16 35.546875 
Q 12.703125 32.90625 12.703125 26.59375 
Q 12.703125 14.90625 16.34375 8.15625 
Q 20 1.40625 26.90625 1.40625 
Q 32.203125 1.40625 35 6.15625 
Q 37.796875 10.90625 37.796875 18.796875 
z
" id="STIXGeneral-Regular-36"/>
      </defs>
      <g transform="translate(780.993544 208.278824)scale(0.32 -0.32)">
       <use xlink:href="#STIXGeneral-Regular-36"/>
       <use x="49.999985" xlink:href="#STIXGeneral-Regular-30"/>
      </g>
     </g>
    </g>
    <g id="xtick_8">
     <g id="line2d_15">
      <defs>
       <path d="M 0 0 
L 0 6 
" id="mf6088c36a0" style="stroke:#000000;"/>
      </defs>
      <g>
       <use style="stroke:#000000;" x="146.901094" xlink:href="#mf6088c36a0" y="170.923824"/>
      </g>
     </g>
    </g>
    <g id="xtick_9">
     <g id="line2d_16">
      <g>
       <use style="stroke:#000000;" x="188.842542" xlink:href="#mf6088c36a0" y="170.923824"/>
      </g>
     </g>
    </g>
    <g id="xtick_10">
     <g id="line2d_17">
      <g>
       <use style="stroke:#000000;" x="209.813267" xlink:href="#mf6088c36a0" y="170.923824"/>
      </g>
     </g>
    </g>
    <g id="xtick_11">
     <g id="line2d_18">
      <g>
       <use style="stroke:#000000;" x="230.783991" xlink:href="#mf6088c36a0" y="170.923824"/>
      </g>
     </g>
    </g>
    <g id="xtick_12">
     <g id="line2d_19">
      <g>
       <use style="stroke:#000000;" x="251.754715" xlink:href="#mf6088c36a0" y="170.923824"/>
      </g>
     </g>
    </g>
    <g id="xtick_13">
     <g id="line2d_20">
      <g>
       <use style="stroke:#000000;" x="293.696163" xlink:href="#mf6088c36a0" y="170.923824"/>
      </g>
     </g>
    </g>
    <g id="xtick_14">
     <g id="line2d_21">
      <g>
       <use style="stroke:#000000;" x="314.666888" xlink:href="#mf6088c36a0" y="170.923824"/>
      </g>
     </g>
    </g>
    <g id="xtick_15">
     <g id="line2d_22">
      <g>
       <use style="stroke:#000000;" x="335.637612" xlink:href="#mf6088c36a0" y="170.923824"/>
      </g>
     </g>
    </g>
    <g id="xtick_16">
     <g id="line2d_23">
      <g>
       <use style="stroke:#000000;" x="356.608336" xlink:href="#mf6088c36a0" y="170.923824"/>
      </g>
     </g>
    </g>
    <g id="xtick_17">
     <g id="line2d_24">
      <g>
       <use style="stroke:#000000;" x="398.549784" xlink:href="#mf6088c36a0" y="170.923824"/>
      </g>
     </g>
    </g>
    <g id="xtick_18">
     <g id="line2d_25">
      <g>
       <use style="stroke:#000000;" x="419.520508" xlink:href="#mf6088c36a0" y="170.923824"/>
      </g>
     </g>
    </g>
    <g id="xtick_19">
     <g id="line2d_26">
      <g>
       <use style="stroke:#000000;" x="440.491233" xlink:href="#mf6088c36a0" y="170.923824"/>
      </g>
     </g>
    </g>
    <g id="xtick_20">
     <g id="line2d_27">
      <g>
       <use style="stroke:#000000;" x="461.461957" xlink:href="#mf6088c36a0" y="170.923824"/>
      </g>
     </g>
    </g>
    <g id="xtick_21">
     <g id="line2d_28">
      <g>
       <use style="stroke:#000000;" x="503.403405" xlink:href="#mf6088c36a0" y="170.923824"/>
      </g>
     </g>
    </g>
    <g id="xtick_22">
     <g id="line2d_29">
      <g>
       <use style="stroke:#000000;" x="524.374129" xlink:href="#mf6088c36a0" y="170.923824"/>
      </g>
     </g>
    </g>
    <g id="xtick_23">
     <g id="line2d_30">
      <g>
       <use style="stroke:#000000;" x="545.344854" xlink:href="#mf6088c36a0" y="170.923824"/>
      </g>
     </g>
    </g>
    <g id="xtick_24">
     <g id="line2d_31">
      <g>
       <use style="stroke:#000000;" x="566.315578" xlink:href="#mf6088c36a0" y="170.923824"/>
      </g>
     </g>
    </g>
    <g id="xtick_25">
     <g id="line2d_32">
      <g>
       <use style="stroke:#000000;" x="608.257026" xlink:href="#mf6088c36a0" y="170.923824"/>
      </g>
     </g>
    </g>
    <g id="xtick_26">
     <g id="line2d_33">
      <g>
       <use style="stroke:#000000;" x="629.22775" xlink:href="#mf6088c36a0" y="170.923824"/>
      </g>
     </g>
    </g>
    <g id="xtick_27">
     <g id="line2d_34">
      <g>
       <use style="stroke:#000000;" x="650.198475" xlink:href="#mf6088c36a0" y="170.923824"/>
      </g>
     </g>
    </g>
    <g id="xtick_28">
     <g id="line2d_35">
      <g>
       <use style="stroke:#000000;" x="671.169199" xlink:href="#mf6088c36a0" y="170.923824"/>
      </g>
     </g>
    </g>
    <g id="xtick_29">
     <g id="line2d_36">
      <g>
       <use style="stroke:#000000;" x="713.110647" xlink:href="#mf6088c36a0" y="170.923824"/>
      </g>
     </g>
    </g>
    <g id="xtick_30">
     <g id="line2d_37">
      <g>
       <use style="stroke:#000000;" x="734.081371" xlink:href="#mf6088c36a0" y="170.923824"/>
      </g>
     </g>
    </g>
    <g id="xtick_31">
     <g id="line2d_38">
      <g>
       <use style="stroke:#000000;" x="755.052096" xlink:href="#mf6088c36a0" y="170.923824"/>
      </g>
     </g>
    </g>
    <g id="xtick_32">
     <g id="line2d_39">
      <g>
       <use style="stroke:#000000;" x="776.02282" xlink:href="#mf6088c36a0" y="170.923824"/>
      </g>
     </g>
    </g>
    <g id="text_8">
     <!-- Time (s) -->
     <defs>
      <path d="M 59.296875 49.203125 
L 56.90625 49.203125 
Q 55.296875 57.40625 52.390625 59.703125 
Q 49.5 62 41.5 62 
L 35.59375 62 
L 35.59375 11.09375 
Q 35.59375 5.40625 37.296875 3.796875 
Q 39 2.203125 45.203125 1.90625 
L 45.203125 0 
L 16 0 
L 16 1.90625 
Q 22.296875 2.296875 23.84375 4 
Q 25.40625 5.703125 25.40625 12.296875 
L 25.40625 62 
L 19.40625 62 
Q 11.296875 62 8.4375 59.640625 
Q 5.59375 57.296875 4.09375 49.203125 
L 1.703125 49.203125 
L 2.40625 66.203125 
L 58.59375 66.203125 
z
" id="STIXGeneral-Regular-54"/>
      <path d="M 18 63.203125 
Q 18 61 16.5 59.546875 
Q 15 58.09375 12.796875 58.09375 
Q 10.703125 58.09375 9.25 59.546875 
Q 7.796875 61 7.796875 63.203125 
Q 7.796875 65.296875 9.296875 66.796875 
Q 10.796875 68.296875 12.90625 68.296875 
Q 15.09375 68.296875 16.546875 66.796875 
Q 18 65.296875 18 63.203125 
z
M 25.296875 0 
L 1.59375 0 
L 1.59375 1.5 
Q 6.796875 1.796875 8.140625 3.296875 
Q 9.5 4.796875 9.5 10.40625 
L 9.5 33.09375 
Q 9.5 36.59375 8.796875 38 
Q 8.09375 39.40625 6.203125 39.40625 
Q 3.796875 39.40625 2 38.90625 
L 2 40.5 
L 17.5 46 
L 17.90625 45.59375 
L 17.90625 10.5 
Q 17.90625 4.90625 19.15625 3.40625 
Q 20.40625 1.90625 25.296875 1.5 
z
" id="STIXGeneral-Regular-69"/>
      <path d="M 77.5 0 
L 55.703125 0 
L 55.703125 1.5 
Q 59.90625 1.90625 61.046875 3.25 
Q 62.203125 4.59375 62.203125 9 
L 62.203125 29.59375 
Q 62.203125 35.59375 60.453125 38.1875 
Q 58.703125 40.796875 54.5 40.796875 
Q 51 40.796875 48.546875 39.390625 
Q 46.09375 38 43.796875 34.703125 
L 43.796875 9.5 
Q 43.796875 4.703125 45.25 3.140625 
Q 46.703125 1.59375 51 1.5 
L 51 0 
L 28.59375 0 
L 28.59375 1.5 
Q 33 1.796875 34.203125 2.9375 
Q 35.40625 4.09375 35.40625 8.59375 
L 35.40625 29.703125 
Q 35.40625 40.796875 28.90625 40.796875 
Q 26.09375 40.796875 22.9375 39.546875 
Q 19.796875 38.296875 18.296875 36.5 
Q 17 35 17 34.796875 
L 17 7 
Q 17 3.796875 18.390625 2.75 
Q 19.796875 1.703125 23.796875 1.5 
L 23.796875 0 
L 1.59375 0 
L 1.59375 1.5 
Q 5.796875 1.59375 7.1875 3.046875 
Q 8.59375 4.5 8.59375 8.796875 
L 8.59375 33.59375 
Q 8.59375 37.296875 7.796875 38.75 
Q 7 40.203125 5.09375 40.203125 
Q 3.59375 40.203125 1.90625 39.796875 
L 1.90625 41.5 
Q 8.703125 43.40625 15.796875 46 
L 16.59375 45.703125 
L 16.59375 38.296875 
L 16.796875 38.296875 
Q 21.296875 43 24.75 44.5 
Q 28.203125 46 32.09375 46 
Q 40 46 42.703125 37.59375 
Q 50.5 46 59 46 
Q 70.59375 46 70.59375 28 
L 70.59375 7.703125 
Q 70.59375 4.40625 71.59375 3.15625 
Q 72.59375 1.90625 74.90625 1.703125 
L 77.5 1.5 
z
" id="STIXGeneral-Regular-6d"/>
      <path d="M 40.796875 16.40625 
L 42.40625 15.703125 
Q 36.40625 -1 21.5 -1 
Q 12.703125 -1 7.59375 5.140625 
Q 2.5 11.296875 2.5 21.703125 
Q 2.5 32.40625 8.203125 39.203125 
Q 13.90625 46 23.203125 46 
Q 32.203125 46 37.09375 39.09375 
Q 40 35.09375 40.5 27.703125 
L 9.703125 27.703125 
Q 10.09375 21.40625 10.9375 18.09375 
Q 11.796875 14.796875 14.296875 11.40625 
Q 18.5 5.90625 25.40625 5.90625 
Q 30.296875 5.90625 33.640625 8.296875 
Q 37 10.703125 40.796875 16.40625 
z
M 9.90625 30.90625 
L 30.296875 30.90625 
Q 29.40625 37.203125 27.34375 39.796875 
Q 25.296875 42.40625 20.5 42.40625 
Q 16.296875 42.40625 13.5 39.453125 
Q 10.703125 36.5 9.90625 30.90625 
z
" id="STIXGeneral-Regular-65"/>
      <path id="STIXGeneral-Regular-20"/>
      <path d="M 30.40625 -16.09375 
L 29.203125 -17.703125 
Q 17.59375 -11.09375 11.1875 0.5 
Q 4.796875 12.09375 4.796875 25.203125 
Q 4.796875 52.90625 29.5 67.59375 
L 30.40625 66 
Q 20.203125 57.296875 16.796875 48.84375 
Q 13.40625 40.40625 13.40625 25.5 
Q 13.40625 10.703125 16.90625 1.5 
Q 20.40625 -7.703125 30.40625 -16.09375 
z
" id="STIXGeneral-Regular-28"/>
      <path d="M 15.59375 30.09375 
L 26 23.796875 
Q 31 20.796875 32.890625 18.1875 
Q 34.796875 15.59375 34.796875 11.5 
Q 34.796875 6.5 30.640625 2.75 
Q 26.5 -1 20.796875 -1 
Q 16.09375 -1 13.5 -0.09375 
Q 10.796875 0.796875 8.90625 0.796875 
Q 7.203125 0.796875 6.5 -0.40625 
L 5.203125 -0.40625 
L 5.203125 15.296875 
L 6.796875 15.296875 
Q 8.40625 8 11.40625 4.59375 
Q 14.40625 1.203125 19.5 1.203125 
Q 23.203125 1.203125 25.5 3.296875 
Q 27.796875 5.40625 27.796875 8.59375 
Q 27.796875 13.203125 22.5 16.09375 
L 17.09375 19.09375 
Q 5.09375 25.796875 5.09375 33.59375 
Q 5.09375 39.40625 8.84375 42.65625 
Q 12.59375 45.90625 18.90625 45.90625 
Q 23.296875 45.90625 25.59375 44.796875 
Q 27.40625 44 28.40625 44 
Q 29.09375 44 30 45 
L 31.09375 45 
L 31.59375 31.40625 
L 30.09375 31.40625 
Q 28.40625 38.203125 25.84375 40.953125 
Q 23.296875 43.703125 18.796875 43.703125 
Q 15.40625 43.703125 13.34375 42 
Q 11.296875 40.296875 11.296875 36.90625 
Q 11.296875 35.203125 12.4375 33.25 
Q 13.59375 31.296875 15.59375 30.09375 
z
" id="STIXGeneral-Regular-73"/>
      <path d="M 2.90625 66 
L 4.09375 67.59375 
Q 15.5 60.796875 22 49.1875 
Q 28.5 37.59375 28.5 24.703125 
Q 28.5 -2.59375 3.796875 -17.703125 
L 2.90625 -16.09375 
Q 13.203125 -7.59375 16.546875 0.84375 
Q 19.90625 9.296875 19.90625 24.40625 
Q 19.90625 39.59375 16.546875 48.75 
Q 13.203125 57.90625 2.90625 66 
z
" id="STIXGeneral-Regular-29"/>
     </defs>
     <g transform="translate(422.535 241.078824)scale(0.32 -0.32)">
      <use xlink:href="#STIXGeneral-Regular-54"/>
      <use x="61.099991" xlink:href="#STIXGeneral-Regular-69"/>
      <use x="88.899979" xlink:href="#STIXGeneral-Regular-6d"/>
      <use x="166.699966" xlink:href="#STIXGeneral-Regular-65"/>
      <use x="211.09996" xlink:href="#STIXGeneral-Regular-20"/>
      <use x="236.099945" xlink:href="#STIXGeneral-Regular-28"/>
      <use x="269.399933" xlink:href="#STIXGeneral-Regular-73"/>
      <use x="308.299927" xlink:href="#STIXGeneral-Regular-29"/>
     </g>
    </g>
   </g>
   <g id="matplotlib.axis_2">
    <g id="ytick_1">
     <g id="line2d_40">
      <path clip-path="url(#p84cd39f7c9)" d="M 136.94 169.385042 
L 817.44 169.385042 
" style="fill:none;opacity:0.5;stroke:#000000;stroke-dasharray:0.5,0.825;stroke-dashoffset:0;stroke-width:0.5;"/>
     </g>
     <g id="line2d_41">
      <defs>
       <path d="M 0 0 
L -12 0 
" id="m724a96742f" style="stroke:#000000;stroke-width:2;"/>
      </defs>
      <g>
       <use style="stroke:#000000;stroke-width:2;" x="136.94" xlink:href="#m724a96742f" y="169.385042"/>
      </g>
     </g>
     <g id="text_9">
      <!-- $\mathdefault{−2}$ -->
      <defs>
       <path d="M 62.09375 22 
L 6.40625 22 
L 6.40625 28.59375 
L 62.09375 28.59375 
z
" id="STIXGeneral-Regular-2212"/>
      </defs>
      <g transform="translate(83.36 180.312542)scale(0.32 -0.32)">
       <use transform="translate(0 0.40625)" xlink:href="#STIXGeneral-Regular-2212"/>
       <use transform="translate(68.499985 0.40625)" xlink:href="#STIXGeneral-Regular-32"/>
      </g>
     </g>
    </g>
    <g id="ytick_2">
     <g id="line2d_42">
      <path clip-path="url(#p84cd39f7c9)" d="M 136.94 110.798972 
L 817.44 110.798972 
" style="fill:none;opacity:0.5;stroke:#000000;stroke-dasharray:0.5,0.825;stroke-dashoffset:0;stroke-width:0.5;"/>
     </g>
     <g id="line2d_43">
      <g>
       <use style="stroke:#000000;stroke-width:2;" x="136.94" xlink:href="#m724a96742f" y="110.798972"/>
      </g>
     </g>
     <g id="text_10">
      <!-- $\mathdefault{0}$ -->
      <g transform="translate(105.44 121.726472)scale(0.32 -0.32)">
       <use transform="translate(0 0.40625)" xlink:href="#STIXGeneral-Regular-30"/>
      </g>
     </g>
    </g>
    <g id="ytick_3">
     <g id="line2d_44">
      <path clip-path="url(#p84cd39f7c9)" d="M 136.94 52.212901 
L 817.44 52.212901 
" style="fill:none;opacity:0.5;stroke:#000000;stroke-dasharray:0.5,0.825;stroke-dashoffset:0;stroke-width:0.5;"/>
     </g>
     <g id="line2d_45">
      <g>
       <use style="stroke:#000000;stroke-width:2;" x="136.94" xlink:href="#m724a96742f" y="52.212901"/>
      </g>
     </g>
     <g id="text_11">
      <!-- $\mathdefault{2}$ -->
      <g transform="translate(105.44 63.140401)scale(0.32 -0.32)">
       <use transform="translate(0 0.40625)" xlink:href="#STIXGeneral-Regular-32"/>
      </g>
     </g>
    </g>
    <g id="ytick_4">
     <g id="line2d_46">
      <defs>
       <path d="M 0 0 
L -6 0 
" id="m8a9f9c1e61" style="stroke:#000000;"/>
      </defs>
      <g>
       <use style="stroke:#000000;" x="136.94" xlink:href="#m8a9f9c1e61" y="157.667828"/>
      </g>
     </g>
    </g>
    <g id="ytick_5">
     <g id="line2d_47">
      <g>
       <use style="stroke:#000000;" x="136.94" xlink:href="#m8a9f9c1e61" y="145.950614"/>
      </g>
     </g>
    </g>
    <g id="ytick_6">
     <g id="line2d_48">
      <g>
       <use style="stroke:#000000;" x="136.94" xlink:href="#m8a9f9c1e61" y="134.2334"/>
      </g>
     </g>
    </g>
    <g id="ytick_7">
     <g id="line2d_49">
      <g>
       <use style="stroke:#000000;" x="136.94" xlink:href="#m8a9f9c1e61" y="122.516186"/>
      </g>
     </g>
    </g>
    <g id="ytick_8">
     <g id="line2d_50">
      <g>
       <use style="stroke:#000000;" x="136.94" xlink:href="#m8a9f9c1e61" y="110.798972"/>
      </g>
     </g>
    </g>
    <g id="ytick_9">
     <g id="line2d_51">
      <g>
       <use style="stroke:#000000;" x="136.94" xlink:href="#m8a9f9c1e61" y="99.081758"/>
      </g>
     </g>
    </g>
    <g id="ytick_10">
     <g id="line2d_52">
      <g>
       <use style="stroke:#000000;" x="136.94" xlink:href="#m8a9f9c1e61" y="87.364543"/>
      </g>
     </g>
    </g>
    <g id="ytick_11">
     <g id="line2d_53">
      <g>
       <use style="stroke:#000000;" x="136.94" xlink:href="#m8a9f9c1e61" y="75.647329"/>
      </g>
     </g>
    </g>
    <g id="ytick_12">
     <g id="line2d_54">
      <g>
       <use style="stroke:#000000;" x="136.94" xlink:href="#m8a9f9c1e61" y="63.930115"/>
      </g>
     </g>
    </g>
    <g id="ytick_13">
     <g id="line2d_55">
      <g>
       <use style="stroke:#000000;" x="136.94" xlink:href="#m8a9f9c1e61" y="52.212901"/>
      </g>
     </g>
    </g>
    <g id="text_12">
     <!-- Amplitude -->
     <defs>
      <path d="M 70.703125 0 
L 45.203125 0 
L 45.203125 1.90625 
Q 49.203125 1.90625 50.703125 2.796875 
Q 52.09375 3.5 52.09375 5.203125 
Q 52.09375 7.796875 50.203125 12.203125 
L 46.09375 21.59375 
L 19.90625 21.59375 
L 15.296875 10.203125 
Q 14.40625 7.90625 14.40625 6 
Q 14.40625 3.703125 16.046875 2.796875 
Q 17.703125 1.90625 21.40625 1.90625 
L 21.40625 0 
L 1.5 0 
L 1.5 1.90625 
Q 5.703125 2.296875 7.59375 4.9375 
Q 9.5 7.59375 14.09375 18.59375 
L 34.703125 67.40625 
L 36.703125 67.40625 
L 61.296875 11.09375 
Q 63.5 5.90625 65.25 4.09375 
Q 67 2.296875 70.703125 1.90625 
z
M 44.703125 25.703125 
L 33.09375 53.203125 
L 21.59375 25.703125 
z
" id="STIXGeneral-Regular-41"/>
      <path d="M 15.90625 45.796875 
L 15.90625 38.09375 
Q 22.203125 46 30.296875 46 
Q 37.59375 46 42.296875 40 
Q 47 34 47 24.703125 
Q 47 13.796875 40.953125 6.390625 
Q 34.90625 -1 26 -1 
Q 22.90625 -1 20.75 -0.09375 
Q 18.59375 0.796875 15.90625 3.296875 
L 15.90625 -12.40625 
Q 15.90625 -17.09375 17.5 -18.4375 
Q 19.09375 -19.796875 24.703125 -19.90625 
L 24.703125 -21.703125 
L 0.5 -21.703125 
L 0.5 -20 
Q 4.90625 -19.59375 6.203125 -18.296875 
Q 7.5 -17 7.5 -13.09375 
L 7.5 33.703125 
Q 7.5 37.203125 6.703125 38.296875 
Q 5.90625 39.40625 3.40625 39.40625 
Q 1.796875 39.40625 0.90625 39.296875 
L 0.90625 40.90625 
Q 7.90625 43 15.296875 46 
z
M 15.90625 33.40625 
L 15.90625 8.796875 
Q 15.90625 6.59375 19.34375 4.390625 
Q 22.796875 2.203125 26.296875 2.203125 
Q 31.703125 2.203125 35.046875 7.296875 
Q 38.40625 12.40625 38.40625 20.703125 
Q 38.40625 29.5 35.046875 34.75 
Q 31.703125 40 26.09375 40 
Q 22.59375 40 19.25 37.796875 
Q 15.90625 35.59375 15.90625 33.40625 
z
" id="STIXGeneral-Regular-70"/>
      <path d="M 25.703125 0 
L 2.09375 0 
L 2.09375 1.5 
Q 6.796875 1.90625 8.296875 3.453125 
Q 9.796875 5 9.796875 9.203125 
L 9.796875 56.09375 
Q 9.796875 59.703125 8.890625 61.09375 
Q 8 62.5 5.59375 62.5 
Q 3.5 62.5 1.90625 62.296875 
L 1.90625 63.90625 
Q 11.40625 66.203125 17.703125 68.296875 
L 18.203125 67.90625 
L 18.203125 8.703125 
Q 18.203125 4.5 19.59375 3.140625 
Q 21 1.796875 25.703125 1.5 
z
" id="STIXGeneral-Regular-6c"/>
      <path d="M 26.59375 7.703125 
L 27.90625 6.59375 
Q 23.09375 -1 15.796875 -1 
Q 7 -1 7 11.703125 
L 7 41.796875 
L 1.703125 41.796875 
Q 1.296875 42.09375 1.296875 42.5 
Q 1.296875 43.296875 3 44.40625 
Q 6.796875 46.59375 12.703125 55.09375 
Q 12.90625 55.40625 13.65625 56.34375 
Q 14.40625 57.296875 14.703125 57.90625 
Q 15.40625 57.90625 15.40625 56.59375 
L 15.40625 45 
L 25.5 45 
L 25.5 41.796875 
L 15.40625 41.796875 
L 15.40625 13.203125 
Q 15.40625 8.40625 16.59375 6.296875 
Q 17.796875 4.203125 20.59375 4.203125 
Q 23.59375 4.203125 26.59375 7.703125 
z
" id="STIXGeneral-Regular-74"/>
      <path d="M 48 5 
L 48 3.59375 
Q 40.203125 1.5 34.296875 -0.90625 
L 33.796875 -0.59375 
L 33.796875 7.59375 
L 33.59375 7.59375 
Q 27.296875 -1 19.296875 -1 
Q 13.59375 -1 10.34375 2.5 
Q 7.09375 6 7.09375 11.796875 
L 7.09375 36.90625 
Q 7.09375 40.59375 5.796875 42 
Q 4.5 43.40625 0.90625 43.59375 
L 0.90625 45 
L 15.5 45 
L 15.5 12.703125 
Q 15.5 9.296875 17.546875 7.046875 
Q 19.59375 4.796875 22.59375 4.796875 
Q 27.5 4.796875 31 7.90625 
Q 32.296875 9.09375 32.796875 10.140625 
Q 33.296875 11.203125 33.296875 13.703125 
L 33.296875 36.796875 
Q 33.296875 40.703125 31.890625 41.84375 
Q 30.5 43 25.90625 43.296875 
L 25.90625 45 
L 41.703125 45 
L 41.703125 10.703125 
Q 41.703125 7.203125 42.84375 6.09375 
Q 44 5 47.40625 5 
z
" id="STIXGeneral-Regular-75"/>
      <path d="M 49.09375 4.203125 
L 34.40625 -1 
L 34 -0.703125 
L 34 5.703125 
Q 29.203125 -1 21.203125 -1 
Q 12.90625 -1 7.796875 4.953125 
Q 2.703125 10.90625 2.703125 20.5 
Q 2.703125 31.09375 8.796875 38.546875 
Q 14.90625 46 23.5 46 
Q 28.90625 46 34 41.703125 
L 34 57.296875 
Q 34 60.40625 33.09375 61.40625 
Q 32.203125 62.40625 29.40625 62.40625 
Q 28 62.40625 27.203125 62.296875 
L 27.203125 63.90625 
Q 36.296875 66.296875 41.90625 68.296875 
L 42.40625 68.09375 
L 42.40625 11.40625 
Q 42.40625 7.90625 43.25 6.796875 
Q 44.09375 5.703125 46.796875 5.703125 
Q 47.40625 5.703125 49.09375 5.796875 
z
M 34 10.203125 
L 34 33.203125 
Q 34 37.203125 30.953125 40.203125 
Q 27.90625 43.203125 23.796875 43.203125 
Q 18.09375 43.203125 14.6875 38.09375 
Q 11.296875 33 11.296875 24.5 
Q 11.296875 15.296875 15.046875 9.75 
Q 18.796875 4.203125 25.09375 4.203125 
Q 29.796875 4.203125 32.5 7.40625 
Q 34 9.09375 34 10.203125 
z
" id="STIXGeneral-Regular-64"/>
     </defs>
     <g transform="translate(72.415 177.189412)rotate(-90)scale(0.32 -0.32)">
      <use xlink:href="#STIXGeneral-Regular-41"/>
      <use x="72.199982" xlink:href="#STIXGeneral-Regular-6d"/>
      <use x="149.999969" xlink:href="#STIXGeneral-Regular-70"/>
      <use x="199.999954" xlink:href="#STIXGeneral-Regular-6c"/>
      <use x="227.799942" xlink:href="#STIXGeneral-Regular-69"/>
      <use x="255.59993" xlink:href="#STIXGeneral-Regular-74"/>
      <use x="283.399918" xlink:href="#STIXGeneral-Regular-75"/>
      <use x="333.399902" xlink:href="#STIXGeneral-Regular-64"/>
      <use x="383.399887" xlink:href="#STIXGeneral-Regular-65"/>
     </g>
    </g>
   </g>
   <g id="line2d_56">
    <path clip-path="url(#p84cd39f7c9)" d="M 167.871818 110.798972 
L 178.35718 59.459607 
L 188.842542 160.264827 
L 199.327904 114.477621 
L 209.813267 57.78871 
L 220.298629 158.196098 
L 230.783991 118.141753 
L 241.269353 56.327021 
L 251.754715 155.940315 
L 262.240077 121.776907 
L 272.725439 55.080307 
L 283.210801 153.506379 
L 293.696163 125.368735 
L 304.181525 54.05349 
L 314.666888 150.903897 
L 325.15225 128.903063 
L 335.637612 53.250621 
L 346.122974 148.143138 
L 356.608336 132.365943 
L 367.093698 52.67487 
L 377.57906 145.235 
L 388.064422 135.743707 
L 398.549784 52.328507 
L 409.035146 142.190958 
L 419.520508 139.023026 
L 430.005871 52.212901 
L 440.491233 139.023026 
L 450.976595 142.190958 
L 461.461957 52.328507 
L 471.947319 135.743707 
L 482.432681 145.235 
L 492.918043 52.67487 
L 503.403405 132.365943 
L 513.888767 148.143138 
L 524.374129 53.250621 
L 534.859492 128.903063 
L 545.344854 150.903897 
L 555.830216 54.05349 
L 566.315578 125.368735 
L 576.80094 153.506379 
L 587.286302 55.080307 
L 597.771664 121.776907 
L 608.257026 155.940315 
L 618.742388 56.327021 
L 629.22775 118.141753 
L 639.713112 158.196098 
L 650.198475 57.78871 
L 660.683837 114.477621 
L 671.169199 160.264827 
L 681.654561 59.459607 
L 692.139923 110.798972 
L 702.625285 162.138337 
L 713.110647 61.333116 
L 723.596009 107.120322 
L 734.081371 163.809233 
L 744.566733 63.401845 
L 755.052096 103.45619 
L 765.537458 165.270922 
L 776.02282 65.657628 
L 786.508182 99.821037 
" style="fill:none;stroke:#1f77b4;stroke-linecap:square;stroke-width:3.5;"/>
   </g>
   <g id="patch_3">
    <path d="M 136.94 170.923824 
L 136.94 46.56 
" style="fill:none;stroke:#000000;stroke-linecap:square;stroke-linejoin:miter;stroke-width:0.8;"/>
   </g>
   <g id="patch_4">
    <path d="M 817.44 170.923824 
L 817.44 46.56 
" style="fill:none;stroke:#000000;stroke-linecap:square;stroke-linejoin:miter;stroke-width:0.8;"/>
   </g>
   <g id="patch_5">
    <path d="M 136.94 170.923824 
L 817.44 170.923824 
" style="fill:none;stroke:#000000;stroke-linecap:square;stroke-linejoin:miter;stroke-width:0.8;"/>
   </g>
   <g id="patch_6">
    <path d="M 136.94 46.56 
L 817.44 46.56 
" style="fill:none;stroke:#000000;stroke-linecap:square;stroke-linejoin:miter;stroke-width:0.8;"/>
   </g>
  </g>
  <g id="axes_2">
   <g id="patch_7">
    <path d="M 136.94 464.34 
L 817.44 464.34 
L 817.44 339.976176 
L 136.94 339.976176 
z
" style="fill:#ffffff;"/>
   </g>
   <g id="matplotlib.axis_3">
    <g id="xtick_33">
     <g id="line2d_57">
      <path clip-path="url(#pda877511c0)" d="M 167.871818 464.34 
L 167.871818 339.976176 
" style="fill:none;opacity:0.5;stroke:#000000;stroke-dasharray:0.5,0.825;stroke-dashoffset:0;stroke-width:0.5;"/>
     </g>
     <g id="line2d_58">
      <g>
       <use style="stroke:#000000;stroke-width:2;" x="167.871818" xlink:href="#md41fd2cb13" y="464.34"/>
      </g>
     </g>
     <g id="text_13">
      <!-- 0.0 -->
      <defs>
       <path d="M 18.09375 4.296875 
Q 18.09375 2.09375 16.4375 0.5 
Q 14.796875 -1.09375 12.5 -1.09375 
Q 10.203125 -1.09375 8.59375 0.5 
Q 7 2.09375 7 4.390625 
Q 7 6.703125 8.640625 8.34375 
Q 10.296875 10 12.59375 10 
Q 14.796875 10 16.4375 8.296875 
Q 18.09375 6.59375 18.09375 4.296875 
z
" id="STIXGeneral-Regular-2e"/>
      </defs>
      <g transform="translate(147.871818 501.695)scale(0.32 -0.32)">
       <use xlink:href="#STIXGeneral-Regular-30"/>
       <use x="49.999985" xlink:href="#STIXGeneral-Regular-2e"/>
       <use x="74.999969" xlink:href="#STIXGeneral-Regular-30"/>
      </g>
     </g>
    </g>
    <g id="xtick_34">
     <g id="line2d_59">
      <path clip-path="url(#pda877511c0)" d="M 291.599091 464.34 
L 291.599091 339.976176 
" style="fill:none;opacity:0.5;stroke:#000000;stroke-dasharray:0.5,0.825;stroke-dashoffset:0;stroke-width:0.5;"/>
     </g>
     <g id="line2d_60">
      <g>
       <use style="stroke:#000000;stroke-width:2;" x="291.599091" xlink:href="#md41fd2cb13" y="464.34"/>
      </g>
     </g>
     <g id="text_14">
      <!-- 0.1 -->
      <g transform="translate(271.599091 501.695)scale(0.32 -0.32)">
       <use xlink:href="#STIXGeneral-Regular-30"/>
       <use x="49.999985" xlink:href="#STIXGeneral-Regular-2e"/>
       <use x="74.999969" xlink:href="#STIXGeneral-Regular-31"/>
      </g>
     </g>
    </g>
    <g id="xtick_35">
     <g id="line2d_61">
      <path clip-path="url(#pda877511c0)" d="M 415.326364 464.34 
L 415.326364 339.976176 
" style="fill:none;opacity:0.5;stroke:#000000;stroke-dasharray:0.5,0.825;stroke-dashoffset:0;stroke-width:0.5;"/>
     </g>
     <g id="line2d_62">
      <g>
       <use style="stroke:#000000;stroke-width:2;" x="415.326364" xlink:href="#md41fd2cb13" y="464.34"/>
      </g>
     </g>
     <g id="text_15">
      <!-- 0.2 -->
      <g transform="translate(395.326364 501.695)scale(0.32 -0.32)">
       <use xlink:href="#STIXGeneral-Regular-30"/>
       <use x="49.999985" xlink:href="#STIXGeneral-Regular-2e"/>
       <use x="74.999969" xlink:href="#STIXGeneral-Regular-32"/>
      </g>
     </g>
    </g>
    <g id="xtick_36">
     <g id="line2d_63">
      <path clip-path="url(#pda877511c0)" d="M 539.053636 464.34 
L 539.053636 339.976176 
" style="fill:none;opacity:0.5;stroke:#000000;stroke-dasharray:0.5,0.825;stroke-dashoffset:0;stroke-width:0.5;"/>
     </g>
     <g id="line2d_64">
      <g>
       <use style="stroke:#000000;stroke-width:2;" x="539.053636" xlink:href="#md41fd2cb13" y="464.34"/>
      </g>
     </g>
     <g id="text_16">
      <!-- 0.3 -->
      <g transform="translate(519.053636 501.695)scale(0.32 -0.32)">
       <use xlink:href="#STIXGeneral-Regular-30"/>
       <use x="49.999985" xlink:href="#STIXGeneral-Regular-2e"/>
       <use x="74.999969" xlink:href="#STIXGeneral-Regular-33"/>
      </g>
     </g>
    </g>
    <g id="xtick_37">
     <g id="line2d_65">
      <path clip-path="url(#pda877511c0)" d="M 662.780909 464.34 
L 662.780909 339.976176 
" style="fill:none;opacity:0.5;stroke:#000000;stroke-dasharray:0.5,0.825;stroke-dashoffset:0;stroke-width:0.5;"/>
     </g>
     <g id="line2d_66">
      <g>
       <use style="stroke:#000000;stroke-width:2;" x="662.780909" xlink:href="#md41fd2cb13" y="464.34"/>
      </g>
     </g>
     <g id="text_17">
      <!-- 0.4 -->
      <g transform="translate(642.780909 501.695)scale(0.32 -0.32)">
       <use xlink:href="#STIXGeneral-Regular-30"/>
       <use x="49.999985" xlink:href="#STIXGeneral-Regular-2e"/>
       <use x="74.999969" xlink:href="#STIXGeneral-Regular-34"/>
      </g>
     </g>
    </g>
    <g id="xtick_38">
     <g id="line2d_67">
      <path clip-path="url(#pda877511c0)" d="M 786.508182 464.34 
L 786.508182 339.976176 
" style="fill:none;opacity:0.5;stroke:#000000;stroke-dasharray:0.5,0.825;stroke-dashoffset:0;stroke-width:0.5;"/>
     </g>
     <g id="line2d_68">
      <g>
       <use style="stroke:#000000;stroke-width:2;" x="786.508182" xlink:href="#md41fd2cb13" y="464.34"/>
      </g>
     </g>
     <g id="text_18">
      <!-- 0.5 -->
      <g transform="translate(766.508182 501.695)scale(0.32 -0.32)">
       <use xlink:href="#STIXGeneral-Regular-30"/>
       <use x="49.999985" xlink:href="#STIXGeneral-Regular-2e"/>
       <use x="74.999969" xlink:href="#STIXGeneral-Regular-35"/>
      </g>
     </g>
    </g>
    <g id="xtick_39">
     <g id="line2d_69">
      <g>
       <use style="stroke:#000000;" x="143.126364" xlink:href="#mf6088c36a0" y="464.34"/>
      </g>
     </g>
    </g>
    <g id="xtick_40">
     <g id="line2d_70">
      <g>
       <use style="stroke:#000000;" x="192.617273" xlink:href="#mf6088c36a0" y="464.34"/>
      </g>
     </g>
    </g>
    <g id="xtick_41">
     <g id="line2d_71">
      <g>
       <use style="stroke:#000000;" x="217.362727" xlink:href="#mf6088c36a0" y="464.34"/>
      </g>
     </g>
    </g>
    <g id="xtick_42">
     <g id="line2d_72">
      <g>
       <use style="stroke:#000000;" x="242.108182" xlink:href="#mf6088c36a0" y="464.34"/>
      </g>
     </g>
    </g>
    <g id="xtick_43">
     <g id="line2d_73">
      <g>
       <use style="stroke:#000000;" x="266.853636" xlink:href="#mf6088c36a0" y="464.34"/>
      </g>
     </g>
    </g>
    <g id="xtick_44">
     <g id="line2d_74">
      <g>
       <use style="stroke:#000000;" x="316.344545" xlink:href="#mf6088c36a0" y="464.34"/>
      </g>
     </g>
    </g>
    <g id="xtick_45">
     <g id="line2d_75">
      <g>
       <use style="stroke:#000000;" x="341.09" xlink:href="#mf6088c36a0" y="464.34"/>
      </g>
     </g>
    </g>
    <g id="xtick_46">
     <g id="line2d_76">
      <g>
       <use style="stroke:#000000;" x="365.835455" xlink:href="#mf6088c36a0" y="464.34"/>
      </g>
     </g>
    </g>
    <g id="xtick_47">
     <g id="line2d_77">
      <g>
       <use style="stroke:#000000;" x="390.580909" xlink:href="#mf6088c36a0" y="464.34"/>
      </g>
     </g>
    </g>
    <g id="xtick_48">
     <g id="line2d_78">
      <g>
       <use style="stroke:#000000;" x="440.071818" xlink:href="#mf6088c36a0" y="464.34"/>
      </g>
     </g>
    </g>
    <g id="xtick_49">
     <g id="line2d_79">
      <g>
       <use style="stroke:#000000;" x="464.817273" xlink:href="#mf6088c36a0" y="464.34"/>
      </g>
     </g>
    </g>
    <g id="xtick_50">
     <g id="line2d_80">
      <g>
       <use style="stroke:#000000;" x="489.562727" xlink:href="#mf6088c36a0" y="464.34"/>
      </g>
     </g>
    </g>
    <g id="xtick_51">
     <g id="line2d_81">
      <g>
       <use style="stroke:#000000;" x="514.308182" xlink:href="#mf6088c36a0" y="464.34"/>
      </g>
     </g>
    </g>
    <g id="xtick_52">
     <g id="line2d_82">
      <g>
       <use style="stroke:#000000;" x="563.799091" xlink:href="#mf6088c36a0" y="464.34"/>
      </g>
     </g>
    </g>
    <g id="xtick_53">
     <g id="line2d_83">
      <g>
       <use style="stroke:#000000;" x="588.544545" xlink:href="#mf6088c36a0" y="464.34"/>
      </g>
     </g>
    </g>
    <g id="xtick_54">
     <g id="line2d_84">
      <g>
       <use style="stroke:#000000;" x="613.29" xlink:href="#mf6088c36a0" y="464.34"/>
      </g>
     </g>
    </g>
    <g id="xtick_55">
     <g id="line2d_85">
      <g>
       <use style="stroke:#000000;" x="638.035455" xlink:href="#mf6088c36a0" y="464.34"/>
      </g>
     </g>
    </g>
    <g id="xtick_56">
     <g id="line2d_86">
      <g>
       <use style="stroke:#000000;" x="687.526364" xlink:href="#mf6088c36a0" y="464.34"/>
      </g>
     </g>
    </g>
    <g id="xtick_57">
     <g id="line2d_87">
      <g>
       <use style="stroke:#000000;" x="712.271818" xlink:href="#mf6088c36a0" y="464.34"/>
      </g>
     </g>
    </g>
    <g id="xtick_58">
     <g id="line2d_88">
      <g>
       <use style="stroke:#000000;" x="737.017273" xlink:href="#mf6088c36a0" y="464.34"/>
      </g>
     </g>
    </g>
    <g id="xtick_59">
     <g id="line2d_89">
      <g>
       <use style="stroke:#000000;" x="761.762727" xlink:href="#mf6088c36a0" y="464.34"/>
      </g>
     </g>
    </g>
    <g id="xtick_60">
     <g id="line2d_90">
      <g>
       <use style="stroke:#000000;" x="811.253636" xlink:href="#mf6088c36a0" y="464.34"/>
      </g>
     </g>
    </g>
    <g id="text_19">
     <!-- Frequnecy (Hz) -->
     <defs>
      <path d="M 54.59375 51.90625 
L 52.09375 51.90625 
Q 51 58.703125 48.34375 60.546875 
Q 45.703125 62.40625 36.703125 62.40625 
L 23.5 62.40625 
Q 21.40625 62.40625 20.75 61.65625 
Q 20.09375 60.90625 20.09375 58.5 
L 20.09375 36.796875 
L 34.296875 36.796875 
Q 40.59375 36.796875 42.75 38.59375 
Q 44.90625 40.40625 45.59375 46.296875 
L 47.90625 46.296875 
L 47.90625 23 
L 45.59375 23 
Q 45 29.09375 42.890625 30.890625 
Q 40.796875 32.703125 34.296875 32.703125 
L 20.09375 32.703125 
L 20.09375 11.203125 
Q 20.09375 5.5 21.75 3.84375 
Q 23.40625 2.203125 29.203125 1.90625 
L 29.203125 0 
L 1.09375 0 
L 1.09375 1.90625 
Q 6.796875 2.296875 8.34375 4.046875 
Q 9.90625 5.796875 9.90625 12.296875 
L 9.90625 55.09375 
Q 9.90625 60.59375 8.40625 62.25 
Q 6.90625 63.90625 1.203125 64.296875 
L 1.203125 66.203125 
L 54.09375 66.203125 
z
" id="STIXGeneral-Regular-46"/>
      <path d="M 16 45.796875 
L 16 36.59375 
Q 19.796875 42 22.34375 44 
Q 24.90625 46 28 46 
Q 30.59375 46 32.046875 44.59375 
Q 33.5 43.203125 33.5 40.703125 
Q 33.5 38.59375 32.453125 37.390625 
Q 31.40625 36.203125 29.59375 36.203125 
Q 27.703125 36.203125 25.59375 38.203125 
Q 24 39.703125 23 39.703125 
Q 20.90625 39.703125 18.453125 36.796875 
Q 16 33.90625 16 31.5 
L 16 9 
Q 16 4.703125 17.703125 3.203125 
Q 19.40625 1.703125 24.5 1.5 
L 24.5 0 
L 0.5 0 
L 0.5 1.5 
Q 5.296875 2.40625 6.4375 3.5 
Q 7.59375 4.59375 7.59375 8.40625 
L 7.59375 33.40625 
Q 7.59375 36.703125 6.84375 38.046875 
Q 6.09375 39.40625 4.203125 39.40625 
Q 2.59375 39.40625 0.703125 39 
L 0.703125 40.59375 
Q 7 42.59375 15.5 46 
z
" id="STIXGeneral-Regular-72"/>
      <path d="M 48.796875 -21.703125 
L 25.203125 -21.703125 
L 25.203125 -20 
Q 30.5 -19.59375 32.296875 -18.09375 
Q 34.09375 -16.59375 34.09375 -12.40625 
L 34.09375 6.40625 
Q 27.296875 -1 18.40625 -1 
Q 11.40625 -1 6.90625 5 
Q 2.40625 11 2.40625 20.5 
Q 2.40625 31.296875 8.75 38.640625 
Q 15.09375 46 24.40625 46 
Q 30 46 36 42.5 
L 41.40625 45.703125 
L 42.5 45.703125 
L 42.5 -14.09375 
Q 42.5 -17.296875 43.703125 -18.4375 
Q 44.90625 -19.59375 48.796875 -20 
z
M 34.09375 12.703125 
L 34.09375 33.296875 
Q 34.09375 43.09375 24.796875 43.09375 
Q 18.40625 43.09375 14.703125 38 
Q 11 32.90625 11 24.09375 
Q 11 18.90625 12.546875 14.453125 
Q 14.09375 10 16.59375 7.796875 
Q 19.59375 5.09375 24.09375 5.09375 
Q 29.40625 5.09375 32.90625 8.296875 
Q 34.09375 9.40625 34.09375 12.703125 
z
" id="STIXGeneral-Regular-71"/>
      <path d="M 48.5 0 
L 27.703125 0 
L 27.796875 1.5 
Q 31.5 1.796875 32.75 3.640625 
Q 34 5.5 34 10.5 
L 34 30.40625 
Q 34 40.5 26.703125 40.5 
Q 24.203125 40.5 22 39.296875 
Q 19.796875 38.09375 16.40625 34.796875 
L 16.40625 7.203125 
Q 16.40625 4.203125 17.75 3 
Q 19.09375 1.796875 22.90625 1.5 
L 22.90625 0 
L 1.796875 0 
L 1.796875 1.5 
Q 5.59375 1.796875 6.796875 3.34375 
Q 8 4.90625 8 9.40625 
L 8 33.703125 
Q 8 37.40625 7.296875 38.796875 
Q 6.59375 40.203125 4.5 40.203125 
Q 2.5 40.203125 1.59375 39.796875 
L 1.59375 41.5 
Q 8.59375 43.5 15.296875 46 
L 16.09375 45.703125 
L 16.09375 37.90625 
L 16.203125 37.90625 
Q 23.296875 46 30.59375 46 
Q 36.296875 46 39.34375 42 
Q 42.40625 38 42.40625 30.59375 
L 42.40625 8.5 
Q 42.40625 4.5 43.59375 3.203125 
Q 44.796875 1.90625 48.5 1.5 
z
" id="STIXGeneral-Regular-6e"/>
      <path d="M 39.796875 15.59375 
L 41.203125 14.703125 
Q 36.90625 6.296875 33 3.203125 
Q 27.90625 -1 21.5 -1 
Q 13.203125 -1 7.84375 5.25 
Q 2.5 11.5 2.5 21.203125 
Q 2.5 33.90625 10.90625 40.90625 
Q 17.09375 46 24.40625 46 
Q 30.703125 46 35.25 42.953125 
Q 39.796875 39.90625 39.796875 35.703125 
Q 39.796875 34 38.390625 32.75 
Q 37 31.5 35.09375 31.5 
Q 31.59375 31.5 30.296875 36.09375 
L 29.703125 38.296875 
Q 28.90625 41.09375 27.703125 42.09375 
Q 26.5 43.09375 23.796875 43.09375 
Q 17.703125 43.09375 13.953125 38.296875 
Q 10.203125 33.5 10.203125 25.703125 
Q 10.203125 17.09375 14.5 11.640625 
Q 18.796875 6.203125 25.703125 6.203125 
Q 30 6.203125 33.09375 8.25 
Q 36.203125 10.296875 39.796875 15.59375 
z
" id="STIXGeneral-Regular-63"/>
      <path d="M 47.5 45 
L 47.5 43.5 
Q 45.703125 43.296875 44.59375 42.1875 
Q 43.5 41.09375 42.5 38.40625 
L 27.5 -2.5 
Q 23.59375 -13.09375 19.640625 -17.4375 
Q 15.703125 -21.796875 10 -21.796875 
Q 6.796875 -21.796875 4.890625 -20.140625 
Q 3 -18.5 3 -16 
Q 3 -14.09375 4.25 -12.75 
Q 5.5 -11.40625 7.296875 -11.40625 
Q 10.203125 -11.40625 12.5 -12.703125 
Q 13.796875 -13.40625 15.09375 -13.40625 
Q 17.203125 -13.40625 20.09375 -9 
Q 21.5 -7 22.796875 -3.296875 
Q 24.09375 0.40625 24.09375 1.796875 
Q 24.09375 3.09375 19.90625 11.90625 
L 6.703125 40.09375 
Q 5.40625 43 1.40625 43.59375 
L 1.40625 45 
L 21.90625 45 
L 21.90625 43.5 
Q 18.703125 43.40625 17.453125 42.796875 
Q 16.203125 42.203125 16.203125 40.796875 
Q 16.203125 39.703125 17.5 36.703125 
L 28.703125 11.703125 
L 38.40625 39.296875 
Q 38.796875 40.203125 38.796875 41.09375 
Q 38.796875 43.5 34.203125 43.5 
L 34.203125 45 
z
" id="STIXGeneral-Regular-79"/>
      <path d="M 70.296875 0 
L 42.40625 0 
L 42.40625 1.90625 
Q 48.203125 2.296875 49.703125 4.140625 
Q 51.203125 6 51.203125 12.40625 
L 51.203125 31.5 
L 20.90625 31.5 
L 20.90625 11.296875 
Q 20.90625 5.796875 22.5 4 
Q 24.09375 2.203125 29.59375 1.90625 
L 29.703125 0 
L 1.796875 0 
L 1.796875 1.90625 
Q 7.703125 2.296875 9.203125 4.046875 
Q 10.703125 5.796875 10.703125 12.203125 
L 10.703125 54.796875 
Q 10.703125 60.59375 9.140625 62.1875 
Q 7.59375 63.796875 1.796875 64.296875 
L 1.796875 66.203125 
L 29.796875 66.203125 
L 29.796875 64.296875 
Q 24.203125 63.796875 22.546875 62.140625 
Q 20.90625 60.5 20.90625 54.796875 
L 20.90625 35.90625 
L 51.203125 35.90625 
L 51.203125 54.796875 
Q 51.203125 60.59375 49.640625 62.1875 
Q 48.09375 63.796875 42.296875 64.296875 
L 42.296875 66.203125 
L 70.296875 66.203125 
L 70.296875 64.296875 
Q 64.703125 63.796875 63.046875 62.140625 
Q 61.40625 60.5 61.40625 54.796875 
L 61.40625 11.09375 
Q 61.40625 5.796875 63.046875 4.046875 
Q 64.703125 2.296875 70.296875 1.90625 
z
" id="STIXGeneral-Regular-48"/>
      <path d="M 41.796875 13.59375 
L 40.296875 0 
L 2.703125 0 
L 2.703125 1.5 
L 29.296875 42 
L 15.796875 42 
Q 11.09375 42 9.4375 40.34375 
Q 7.796875 38.703125 7.09375 33.203125 
L 5.296875 33.203125 
L 5.703125 45 
L 40.296875 45 
L 40.296875 43.5 
L 13.40625 3 
L 26.703125 3 
Q 35.09375 3 37.296875 5.703125 
Q 38.703125 7.40625 40 14 
z
" id="STIXGeneral-Regular-7a"/>
     </defs>
     <g transform="translate(376.34 534.465)scale(0.32 -0.32)">
      <use xlink:href="#STIXGeneral-Regular-46"/>
      <use x="55.599991" xlink:href="#STIXGeneral-Regular-72"/>
      <use x="88.899979" xlink:href="#STIXGeneral-Regular-65"/>
      <use x="133.299973" xlink:href="#STIXGeneral-Regular-71"/>
      <use x="183.299957" xlink:href="#STIXGeneral-Regular-75"/>
      <use x="233.299942" xlink:href="#STIXGeneral-Regular-6e"/>
      <use x="283.299927" xlink:href="#STIXGeneral-Regular-65"/>
      <use x="327.699921" xlink:href="#STIXGeneral-Regular-63"/>
      <use x="372.099915" xlink:href="#STIXGeneral-Regular-79"/>
      <use x="422.099899" xlink:href="#STIXGeneral-Regular-20"/>
      <use x="447.099884" xlink:href="#STIXGeneral-Regular-28"/>
      <use x="480.399872" xlink:href="#STIXGeneral-Regular-48"/>
      <use x="552.599854" xlink:href="#STIXGeneral-Regular-7a"/>
      <use x="596.999847" xlink:href="#STIXGeneral-Regular-29"/>
     </g>
    </g>
   </g>
   <g id="matplotlib.axis_4">
    <g id="ytick_14">
     <g id="line2d_91">
      <path clip-path="url(#pda877511c0)" d="M 136.94 431.451289 
L 817.44 431.451289 
" style="fill:none;opacity:0.5;stroke:#000000;stroke-dasharray:0.5,0.825;stroke-dashoffset:0;stroke-width:0.5;"/>
     </g>
     <g id="line2d_92">
      <g>
       <use style="stroke:#000000;stroke-width:2;" x="136.94" xlink:href="#m724a96742f" y="431.451289"/>
      </g>
     </g>
     <g id="text_20">
      <!-- $\mathdefault{−50}$ -->
      <g transform="translate(67.36 442.378789)scale(0.32 -0.32)">
       <use transform="translate(0 0.203125)" xlink:href="#STIXGeneral-Regular-2212"/>
       <use transform="translate(68.499985 0.203125)" xlink:href="#STIXGeneral-Regular-35"/>
       <use transform="translate(118.499969 0.203125)" xlink:href="#STIXGeneral-Regular-30"/>
      </g>
     </g>
    </g>
    <g id="ytick_15">
     <g id="line2d_93">
      <path clip-path="url(#pda877511c0)" d="M 136.94 381.208673 
L 817.44 381.208673 
" style="fill:none;opacity:0.5;stroke:#000000;stroke-dasharray:0.5,0.825;stroke-dashoffset:0;stroke-width:0.5;"/>
     </g>
     <g id="line2d_94">
      <g>
       <use style="stroke:#000000;stroke-width:2;" x="136.94" xlink:href="#m724a96742f" y="381.208673"/>
      </g>
     </g>
     <g id="text_21">
      <!-- $\mathdefault{0}$ -->
      <g transform="translate(105.44 392.136173)scale(0.32 -0.32)">
       <use transform="translate(0 0.40625)" xlink:href="#STIXGeneral-Regular-30"/>
      </g>
     </g>
    </g>
    <g id="ytick_16">
     <g id="line2d_95">
      <g>
       <use style="stroke:#000000;" x="136.94" xlink:href="#m8a9f9c1e61" y="461.596858"/>
      </g>
     </g>
    </g>
    <g id="ytick_17">
     <g id="line2d_96">
      <g>
       <use style="stroke:#000000;" x="136.94" xlink:href="#m8a9f9c1e61" y="451.548335"/>
      </g>
     </g>
    </g>
    <g id="ytick_18">
     <g id="line2d_97">
      <g>
       <use style="stroke:#000000;" x="136.94" xlink:href="#m8a9f9c1e61" y="441.499812"/>
      </g>
     </g>
    </g>
    <g id="ytick_19">
     <g id="line2d_98">
      <g>
       <use style="stroke:#000000;" x="136.94" xlink:href="#m8a9f9c1e61" y="421.402765"/>
      </g>
     </g>
    </g>
    <g id="ytick_20">
     <g id="line2d_99">
      <g>
       <use style="stroke:#000000;" x="136.94" xlink:href="#m8a9f9c1e61" y="411.354242"/>
      </g>
     </g>
    </g>
    <g id="ytick_21">
     <g id="line2d_100">
      <g>
       <use style="stroke:#000000;" x="136.94" xlink:href="#m8a9f9c1e61" y="401.305719"/>
      </g>
     </g>
    </g>
    <g id="ytick_22">
     <g id="line2d_101">
      <g>
       <use style="stroke:#000000;" x="136.94" xlink:href="#m8a9f9c1e61" y="391.257196"/>
      </g>
     </g>
    </g>
    <g id="ytick_23">
     <g id="line2d_102">
      <g>
       <use style="stroke:#000000;" x="136.94" xlink:href="#m8a9f9c1e61" y="371.16015"/>
      </g>
     </g>
    </g>
    <g id="ytick_24">
     <g id="line2d_103">
      <g>
       <use style="stroke:#000000;" x="136.94" xlink:href="#m8a9f9c1e61" y="361.111627"/>
      </g>
     </g>
    </g>
    <g id="ytick_25">
     <g id="line2d_104">
      <g>
       <use style="stroke:#000000;" x="136.94" xlink:href="#m8a9f9c1e61" y="351.063104"/>
      </g>
     </g>
    </g>
    <g id="ytick_26">
     <g id="line2d_105">
      <g>
       <use style="stroke:#000000;" x="136.94" xlink:href="#m8a9f9c1e61" y="341.014581"/>
      </g>
     </g>
    </g>
    <g id="text_22">
     <!-- decibels -->
     <defs>
      <path d="M 15.296875 68.09375 
L 15.296875 37.59375 
Q 16.90625 41.40625 20.546875 43.703125 
Q 24.203125 46 28.796875 46 
Q 36.703125 46 41.75 39.703125 
Q 46.796875 33.40625 46.796875 24 
Q 46.796875 13 40.09375 6 
Q 33.40625 -1 23.40625 -1 
Q 17.296875 -1 12.09375 1.046875 
Q 6.90625 3.09375 6.90625 5.59375 
L 6.90625 56.59375 
Q 6.90625 60.296875 6 61.34375 
Q 5.09375 62.40625 2 62.40625 
Q 1.296875 62.40625 0.296875 62.203125 
L 0.296875 63.90625 
L 3.296875 64.796875 
Q 13.5 67.90625 14.796875 68.296875 
z
M 15.296875 31.796875 
L 15.296875 7.40625 
Q 15.296875 5.09375 18.140625 3.640625 
Q 21 2.203125 25 2.203125 
Q 30.90625 2.203125 34.296875 6.5 
Q 38 11.09375 38 19.703125 
Q 38 29.5 34.09375 35 
Q 30.796875 39.703125 25.203125 39.703125 
Q 21.203125 39.703125 18.25 37.34375 
Q 15.296875 35 15.296875 31.796875 
z
" id="STIXGeneral-Regular-62"/>
     </defs>
     <g transform="translate(56.415 454.593088)rotate(-90)scale(0.32 -0.32)">
      <use xlink:href="#STIXGeneral-Regular-64"/>
      <use x="49.999985" xlink:href="#STIXGeneral-Regular-65"/>
      <use x="94.399979" xlink:href="#STIXGeneral-Regular-63"/>
      <use x="138.799973" xlink:href="#STIXGeneral-Regular-69"/>
      <use x="166.59996" xlink:href="#STIXGeneral-Regular-62"/>
      <use x="216.599945" xlink:href="#STIXGeneral-Regular-65"/>
      <use x="260.999939" xlink:href="#STIXGeneral-Regular-6c"/>
      <use x="288.799927" xlink:href="#STIXGeneral-Regular-73"/>
     </g>
    </g>
   </g>
   <g id="line2d_106">
    <path clip-path="url(#pda877511c0)" d="M 167.871818 378.526844 
L 169.080092 378.668838 
L 170.288366 379.104036 
L 171.496641 379.862524 
L 172.704915 381.00402 
L 173.913189 382.6387 
L 175.121463 384.97653 
L 176.329737 388.446885 
L 177.538011 393.724247 
L 178.746286 395.424651 
L 179.95456 389.854099 
L 181.162834 385.886766 
L 182.371108 383.258057 
L 183.579382 381.432769 
L 184.787656 380.151051 
L 185.99593 379.279397 
L 187.204205 378.745623 
L 188.412479 378.511847 
L 189.620753 378.562937 
L 190.829027 378.902415 
L 192.037301 379.55339 
L 193.245575 380.565037 
L 194.453849 382.028714 
L 195.662124 384.115733 
L 196.870398 387.169964 
L 199.286946 396.305768 
L 201.703494 386.869355 
L 202.911768 383.897425 
L 204.120043 381.856653 
L 205.328317 380.421813 
L 206.536591 379.429926 
L 207.744865 378.79379 
L 208.953139 378.466628 
L 210.161413 378.426987 
L 211.369687 378.672771 
L 212.577962 379.220695 
L 213.786236 380.110846 
L 214.99451 381.419131 
L 216.202784 383.286427 
L 217.411058 385.989562 
L 218.619332 390.104107 
L 219.827607 395.71413 
L 221.035881 393.161013 
L 222.244155 387.954405 
L 223.452429 384.570023 
L 224.660703 382.281763 
L 225.868977 380.677662 
L 227.077251 379.556765 
L 228.285526 378.813422 
L 229.4938 378.390487 
L 230.702074 378.259591 
L 231.910348 378.412938 
L 233.118622 378.861242 
L 234.326896 379.636597 
L 235.53517 380.802008 
L 236.743445 382.474001 
L 237.951719 384.877029 
L 239.159993 388.479132 
L 240.368267 393.998674 
L 241.576541 394.921854 
L 242.784815 389.181846 
L 243.993089 385.292994 
L 245.201364 382.715357 
L 246.409638 380.921618 
L 247.617912 379.660806 
L 248.826186 378.804167 
L 250.03446 378.282211 
L 251.242734 378.058817 
L 252.451009 378.120253 
L 253.659283 378.471451 
L 254.867557 379.137331 
L 256.075831 380.169935 
L 257.284105 381.665998 
L 258.492379 383.808798 
L 259.700653 386.97441 
L 260.908928 391.930331 
L 262.117202 396.13492 
L 263.325476 390.602448 
L 264.53375 386.08948 
L 265.742024 383.166485 
L 266.950298 381.157038 
L 268.158572 379.742721 
L 269.366847 378.765198 
L 270.575121 378.139996 
L 271.783395 377.822103 
L 272.991669 377.79143 
L 274.199943 378.047197 
L 275.408217 378.607739 
L 276.616491 379.515616 
L 277.824766 380.851229 
L 279.03304 382.765144 
L 280.241314 385.559595 
L 281.449588 389.892836 
L 282.657862 395.825785 
L 283.866136 392.266042 
L 285.074411 386.991942 
L 286.282685 383.646945 
L 287.490959 381.387867 
L 288.699233 379.802965 
L 289.907507 378.695138 
L 291.115781 377.961328 
L 292.324055 377.5461 
L 293.53233 377.422386 
L 294.740604 377.583603 
L 295.948878 378.041899 
L 297.157152 378.831476 
L 298.365426 380.019051 
L 299.5737 381.72888 
L 300.781974 384.204931 
L 301.990249 387.97842 
L 303.198523 393.968812 
L 304.406797 394.142734 
L 305.615071 388.047528 
L 306.823345 384.172783 
L 308.031619 381.618984 
L 309.239893 379.841788 
L 310.448168 378.591931 
L 311.656442 377.7428 
L 312.864716 377.226465 
L 314.07299 377.008002 
L 315.281264 377.074771 
L 316.489538 377.432957 
L 317.697812 378.109253 
L 318.906087 379.158726 
L 320.114361 380.684198 
L 321.322635 382.883682 
L 322.530909 386.178874 
L 323.739183 391.525308 
L 324.947457 395.778764 
L 326.155732 389.32634 
L 327.364006 384.766805 
L 328.57228 381.856729 
L 329.780554 379.859222 
L 330.988828 378.452656 
L 332.197102 377.479841 
L 333.405376 376.85754 
L 334.613651 376.541774 
L 335.821925 376.513402 
L 337.030199 376.772711 
L 338.238473 377.3395 
L 339.446747 378.258755 
L 340.655021 379.615601 
L 341.863295 381.571569 
L 343.07157 384.46101 
L 344.279844 389.073731 
L 345.488118 395.777307 
L 346.696392 390.929892 
L 347.904666 385.462983 
L 349.11294 382.109744 
L 350.321214 379.855052 
L 351.529489 378.273221 
L 352.737763 377.166303 
L 353.946037 376.431889 
L 355.154311 376.015308 
L 356.362585 375.890261 
L 357.570859 376.051032 
L 358.779134 376.510948 
L 359.987408 377.306114 
L 361.195682 378.506841 
L 362.403956 380.245414 
L 363.61223 382.788029 
L 364.820504 386.750909 
L 366.028778 393.513089 
L 367.237053 392.964302 
L 368.445327 386.314667 
L 369.653601 382.390396 
L 370.861875 379.828767 
L 372.070149 378.047898 
L 373.278423 376.793841 
L 374.486697 375.93959 
L 375.694972 375.417568 
L 376.903246 375.193374 
L 378.11152 375.255022 
L 379.319794 375.609597 
L 380.528068 376.285237 
L 381.736342 377.339669 
L 382.944616 378.881465 
L 384.152891 381.123749 
L 385.361165 384.54154 
L 386.569439 390.391656 
L 387.777713 395.197162 
L 388.985987 387.4109 
L 390.194261 382.717305 
L 391.402536 379.779466 
L 392.61081 377.76856 
L 393.819084 376.35091 
L 395.027358 375.367133 
L 396.235632 374.733692 
L 397.443906 374.406799 
L 398.65218 374.367716 
L 399.860455 374.617358 
L 401.068729 375.176557 
L 402.277003 376.092187 
L 403.485277 377.453354 
L 404.693551 379.431595 
L 405.901825 382.394014 
L 407.110099 387.29767 
L 408.318374 395.548408 
L 409.526648 388.910398 
L 410.734922 383.120178 
L 411.943196 379.705686 
L 413.15147 377.423419 
L 414.359744 375.821145 
L 415.568018 374.695616 
L 416.776293 373.943092 
L 417.984567 373.508624 
L 419.192841 373.366009 
L 420.401115 373.509881 
L 421.609389 373.954221 
L 422.817663 374.73638 
L 424.025937 375.929273 
L 425.234212 377.671532 
L 426.442486 380.248872 
L 427.65076 384.366192 
L 428.859034 392.203411 
L 430.067308 391.104209 
L 431.275582 383.649859 
L 432.483857 379.60509 
L 433.692131 376.994788 
L 434.900405 375.180549 
L 436.108679 373.897673 
L 437.316953 373.016195 
L 438.525227 372.46757 
L 439.733501 372.217114 
L 440.941776 372.252875 
L 442.15005 372.582243 
L 443.358324 373.234055 
L 444.566598 374.267569 
L 445.774872 375.795075 
L 446.983146 378.040688 
L 448.19142 381.524773 
L 450.607969 394.274553 
L 451.816243 384.401678 
L 453.024517 379.473841 
L 454.232791 376.454909 
L 455.441065 374.392352 
L 456.649339 372.931886 
L 457.857614 371.908545 
L 459.065888 371.236819 
L 460.274162 370.872118 
L 461.482436 370.795386 
L 462.69071 371.007492 
L 463.898984 371.529493 
L 465.107259 372.408949 
L 466.315533 373.736794 
L 467.523807 375.690044 
L 468.732081 378.657304 
L 469.940355 383.739595 
L 471.148629 394.844985 
L 472.356903 385.578667 
L 473.565178 379.305237 
L 474.773452 375.757508 
L 475.981726 373.396826 
L 477.19 371.73176 
L 478.398274 370.549155 
L 479.606548 369.741786 
L 480.814822 369.253191 
L 482.023097 369.056413 
L 483.231371 369.145671 
L 484.439645 369.534742 
L 485.647919 370.260985 
L 486.856193 371.397775 
L 488.064467 373.085657 
L 489.272741 375.618641 
L 490.481016 379.753991 
L 491.68929 388.570622 
L 492.897564 387.70444 
L 494.105838 379.086362 
L 495.314112 374.81877 
L 496.522386 372.088855 
L 497.730661 370.181525 
L 498.938935 368.814847 
L 500.147209 367.853036 
L 501.355483 367.225023 
L 502.563757 366.894795 
L 503.772031 366.849566 
L 504.980305 367.096099 
L 506.18858 367.662662 
L 507.396854 368.607963 
L 508.605128 370.043887 
L 509.813402 372.195514 
L 511.021676 375.596127 
L 512.22995 382.068564 
L 513.438224 392.482842 
L 514.646499 378.788255 
L 515.854773 373.467626 
L 517.063047 370.260467 
L 518.271321 368.054022 
L 519.479595 366.463864 
L 520.687869 365.315491 
L 521.896143 364.519347 
L 523.104418 364.028695 
L 524.312692 363.823077 
L 525.520966 363.902227 
L 526.72924 364.286053 
L 527.937514 365.020718 
L 529.145788 366.195152 
L 530.354063 367.983221 
L 531.562337 370.769346 
L 532.770611 375.676738 
L 533.978885 390.104513 
L 535.187159 378.327937 
L 536.395433 371.281954 
L 537.603707 367.413956 
L 538.811982 364.806537 
L 540.020256 362.91393 
L 541.22853 361.507154 
L 542.436804 360.472326 
L 543.645078 359.749304 
L 544.853352 359.308536 
L 546.061626 359.141984 
L 547.269901 359.261073 
L 548.478175 359.700314 
L 549.686449 360.529122 
L 550.894723 361.881622 
L 552.102997 364.039349 
L 553.311271 367.730897 
L 554.519545 376.163956 
L 555.72782 377.321681 
L 556.936094 366.752251 
L 558.144368 361.797131 
L 559.352642 358.486474 
L 560.560916 355.998165 
L 561.76919 354.018033 
L 562.977464 352.39194 
L 564.185739 351.032694 
L 565.394013 349.886209 
L 566.602287 348.916728 
L 567.810561 348.099525 
L 570.227109 346.856205 
L 572.643658 346.065028 
L 575.060206 345.678174 
L 577.476754 345.675058 
L 579.893303 346.056442 
L 582.309851 346.844643 
L 583.518125 347.405577 
L 584.726399 348.089992 
L 585.934673 348.911341 
L 587.142947 349.888163 
L 588.351222 351.046547 
L 589.559496 352.424452 
L 590.76777 354.079777 
L 591.976044 356.106982 
L 593.184318 358.676048 
L 594.392592 362.143578 
L 595.600866 367.49718 
L 596.809141 380.600463 
L 599.225689 366.661235 
L 600.433963 363.274158 
L 601.642237 361.249437 
L 602.850511 359.970239 
L 604.058786 359.187534 
L 605.26706 358.780312 
L 606.475334 358.685689 
L 607.683608 358.87306 
L 608.891882 359.333887 
L 610.100156 360.078949 
L 611.30843 361.141196 
L 612.516705 362.586119 
L 613.724979 364.537903 
L 614.933253 367.250071 
L 616.141527 371.347734 
L 617.349801 379.231564 
L 618.558075 385.797072 
L 619.766349 374.160472 
L 620.974624 369.644609 
L 622.182898 367.005815 
L 623.391172 365.292394 
L 624.599446 364.161616 
L 625.80772 363.454876 
L 627.015994 363.090303 
L 628.224268 363.02565 
L 629.432543 363.243607 
L 630.640817 363.746607 
L 631.849091 364.557455 
L 633.057365 365.726184 
L 634.265639 367.348156 
L 635.473913 369.61047 
L 636.682188 372.932969 
L 637.890462 378.583485 
L 639.098736 393.999004 
L 640.30701 380.206178 
L 641.515284 374.185938 
L 642.723558 370.922933 
L 643.931832 368.832193 
L 645.140107 367.427069 
L 646.348381 366.497778 
L 647.556655 365.938993 
L 648.764929 365.69537 
L 649.973203 365.740659 
L 651.181477 366.069545 
L 652.389751 366.696119 
L 653.598026 367.657937 
L 654.8063 369.028462 
L 656.014574 370.94818 
L 657.222848 373.710855 
L 658.431122 378.074089 
L 659.639396 387.167741 
L 660.84767 386.681029 
L 662.055945 378.161939 
L 663.264219 374.102732 
L 664.472493 371.593558 
L 665.680767 369.910271 
L 666.889041 368.768742 
L 668.097315 368.032355 
L 669.305589 367.629582 
L 670.513864 367.524016 
L 671.722138 367.702387 
L 672.930412 368.17071 
L 674.138686 368.955967 
L 675.34696 370.114427 
L 676.555234 371.752781 
L 677.763509 374.083009 
L 678.971783 377.594237 
L 680.180057 383.832942 
L 681.388331 393.998239 
L 682.596605 382.167218 
L 683.804879 376.97404 
L 685.013153 373.952452 
L 686.221428 371.957824 
L 687.429702 370.59283 
L 688.637976 369.677506 
L 689.84625 369.11952 
L 691.054524 368.870403 
L 692.262798 368.908283 
L 693.471072 369.23134 
L 694.679347 369.857281 
L 695.887621 370.828504 
L 697.095895 372.226505 
L 698.304169 374.20785 
L 699.512443 377.105833 
L 700.720717 381.80693 
L 701.928991 391.68207 
L 703.137266 386.757887 
L 704.34554 379.800726 
L 705.553814 376.107324 
L 706.762088 373.743531 
L 707.970362 372.1303 
L 709.178636 371.025266 
L 710.386911 370.308445 
L 711.595185 369.916487 
L 712.803459 369.817817 
L 714.011733 370.002663 
L 715.220007 370.48028 
L 716.428281 371.281555 
L 717.636555 372.468677 
L 718.84483 374.159257 
L 720.053104 376.589581 
L 721.261378 380.317138 
L 722.469652 387.129341 
L 723.677926 392.349535 
L 724.8862 382.831258 
L 726.094474 378.196584 
L 727.302749 375.37395 
L 728.511023 373.47415 
L 729.719297 372.16103 
L 730.927571 371.27655 
L 732.135845 370.738372 
L 733.344119 370.503514 
L 734.552393 370.553754 
L 735.760668 370.890318 
L 736.968942 371.534215 
L 738.177216 372.532421 
L 739.38549 373.974236 
L 740.593764 376.032215 
L 741.802038 379.079906 
L 743.010312 384.135037 
L 744.218587 393.909459 
L 745.426861 386.398968 
L 746.635135 380.349226 
L 747.843409 376.927987 
L 749.051683 374.685732 
L 750.259957 373.137946 
L 751.468232 372.072224 
L 752.676506 371.381156 
L 753.88478 371.007835 
L 755.093054 370.924649 
L 756.301328 371.124837 
L 757.509602 371.620601 
L 758.717876 372.446551 
L 759.926151 373.670757 
L 761.134425 375.422018 
L 762.342699 377.962402 
L 763.550973 381.924976 
L 764.759247 389.33305 
L 765.967521 390.93035 
L 767.175795 382.725346 
L 768.38407 378.47758 
L 769.592344 375.810966 
L 770.800618 373.991475 
L 772.008892 372.725643 
L 773.217166 371.871798 
L 774.42544 371.355417 
L 775.633714 371.137996 
L 776.841989 371.204441 
L 778.050263 371.558755 
L 779.258537 372.225141 
L 780.466811 373.25524 
L 781.675085 374.746637 
L 782.883359 376.889587 
L 784.091634 380.104715 
L 785.299908 385.575887 
L 786.508182 394.530532 
L 786.508182 394.530532 
" style="fill:none;stroke:#a6cee3;stroke-linecap:square;stroke-width:3.5;"/>
   </g>
   <g id="line2d_107">
    <path clip-path="url(#pda877511c0)" d="M 167.871818 443.915871 
L 169.080092 443.490668 
L 170.288366 442.466967 
L 172.704915 440.198301 
L 173.913189 439.333978 
L 175.121463 438.717503 
L 176.329737 438.353547 
L 177.538011 438.240997 
L 178.746286 438.380721 
L 179.95456 438.777794 
L 181.162834 439.44015 
L 182.371108 440.371159 
L 185.99593 443.940732 
L 187.204205 444.271601 
L 188.412479 443.583602 
L 192.037301 439.70382 
L 193.245575 438.756404 
L 194.453849 438.080694 
L 195.662124 437.672494 
L 196.870398 437.527384 
L 198.078672 437.646973 
L 199.286946 438.041366 
L 200.49522 438.730144 
L 201.703494 439.740687 
L 202.911768 441.09551 
L 205.328317 444.429095 
L 206.536591 445.251292 
L 207.744865 444.450293 
L 211.369687 439.297776 
L 212.577962 438.103249 
L 213.786236 437.236501 
L 214.99451 436.671444 
L 216.202784 436.390398 
L 217.411058 436.387396 
L 218.619332 436.66939 
L 219.827607 437.258242 
L 221.035881 438.194455 
L 222.244155 439.54188 
L 223.452429 441.383299 
L 225.868977 446.049657 
L 227.077251 446.24884 
L 228.285526 443.959306 
L 229.4938 441.359806 
L 230.702074 439.24492 
L 231.910348 437.63885 
L 233.118622 436.459782 
L 234.326896 435.640225 
L 235.53517 435.137177 
L 236.743445 434.92822 
L 237.951719 435.008393 
L 239.159993 435.389891 
L 240.368267 436.105306 
L 241.576541 437.216073 
L 242.784815 438.829555 
L 243.993089 441.126656 
L 246.409638 447.739111 
L 247.617912 446.728177 
L 248.826186 442.903433 
L 250.03446 439.805034 
L 251.242734 437.555872 
L 252.451009 435.924331 
L 253.659283 434.756016 
L 254.867557 433.961077 
L 256.075831 433.489382 
L 257.284105 433.31693 
L 258.492379 433.43995 
L 259.700653 433.874246 
L 260.908928 434.659753 
L 262.117202 435.87314 
L 263.325476 437.657347 
L 264.53375 440.29239 
L 265.742024 444.341037 
L 266.950298 449.531002 
L 268.158572 446.535891 
L 269.366847 441.46468 
L 270.575121 438.098872 
L 271.783395 435.784589 
L 272.991669 434.139462 
L 274.199943 432.973732 
L 275.408217 432.187355 
L 276.616491 431.727074 
L 277.824766 431.568279 
L 279.03304 431.70788 
L 280.241314 432.163584 
L 281.449588 432.979244 
L 282.657862 434.240016 
L 283.866136 436.110159 
L 285.074411 438.937763 
L 286.282685 443.605177 
L 287.490959 451.433377 
L 289.907507 439.788831 
L 291.115781 436.278496 
L 292.324055 433.924493 
L 293.53233 432.265055 
L 294.740604 431.09299 
L 295.948878 430.303194 
L 297.157152 429.840751 
L 298.365426 429.680591 
L 299.5737 429.819747 
L 300.781974 430.276554 
L 301.990249 431.096309 
L 303.198523 432.367494 
L 304.406797 434.263332 
L 305.615071 437.163704 
L 306.823345 442.139025 
L 308.031619 453.264293 
L 309.239893 444.384444 
L 310.448168 437.952812 
L 311.656442 434.347557 
L 312.864716 431.95781 
L 314.07299 430.278076 
L 315.281264 429.091097 
L 316.489538 428.288521 
L 317.697812 427.814132 
L 318.906087 427.64225 
L 320.114361 427.769578 
L 321.322635 428.214255 
L 322.530909 429.021475 
L 323.739183 430.279837 
L 324.947457 432.163544 
L 326.155732 435.058383 
L 327.364006 440.089182 
L 328.57228 454.07416 
L 329.780554 442.777726 
L 330.988828 435.979972 
L 332.197102 432.290088 
L 333.405376 429.858964 
L 334.613651 428.151074 
L 335.821925 426.941268 
L 337.030199 426.118239 
L 338.238473 425.62436 
L 339.446747 425.433103 
L 340.655021 425.5405 
L 341.863295 425.963978 
L 343.07157 426.747748 
L 344.279844 427.978736 
L 345.488118 429.827748 
L 346.696392 432.672177 
L 347.904666 437.610627 
L 349.11294 452.259095 
L 350.321214 440.984629 
L 351.529489 433.860078 
L 352.737763 430.077106 
L 353.946037 427.595064 
L 355.154311 425.850714 
L 356.362585 424.610785 
L 357.570859 423.760654 
L 358.779134 423.240988 
L 359.987408 423.02416 
L 361.195682 423.105281 
L 362.403956 423.500753 
L 363.61223 424.253314 
L 364.820504 425.447295 
L 366.028778 427.247959 
L 367.237053 430.017685 
L 368.445327 434.793824 
L 369.653601 448.374384 
L 370.861875 439.042753 
L 372.070149 431.561051 
L 373.278423 427.668284 
L 374.486697 425.124393 
L 375.694972 423.335291 
L 376.903246 422.058308 
L 378.11152 421.174894 
L 379.319794 420.623666 
L 380.528068 420.375668 
L 381.736342 420.424903 
L 382.944616 420.786553 
L 384.152891 421.501621 
L 385.361165 422.651397 
L 386.569439 424.394672 
L 387.777713 427.076294 
L 388.985987 431.661931 
L 390.194261 443.876411 
L 391.402536 436.941656 
L 392.61081 429.032819 
L 393.819084 425.010114 
L 395.027358 422.392958 
L 396.235632 420.55074 
L 397.443906 419.229725 
L 398.65218 418.306758 
L 399.860455 417.718069 
L 401.068729 417.433174 
L 402.277003 417.44483 
L 403.485277 417.766875 
L 404.693551 418.438442 
L 405.901825 419.537588 
L 407.110099 421.216319 
L 408.318374 423.801413 
L 409.526648 428.186962 
L 410.734922 439.189669 
L 411.943196 434.637135 
L 413.15147 426.205064 
L 414.359744 422.030675 
L 415.568018 419.328337 
L 416.776293 417.424101 
L 417.984567 416.051402 
L 419.192841 415.081823 
L 420.401115 414.448901 
L 421.609389 414.120458 
L 422.817663 414.087899 
L 424.025937 414.36364 
L 425.234212 414.984883 
L 426.442486 416.026399 
L 427.65076 417.633405 
L 428.859034 420.114954 
L 430.067308 424.297562 
L 431.275582 434.273729 
L 432.483857 432.053431 
L 433.692131 422.978784 
L 434.900405 418.629478 
L 436.108679 415.828819 
L 437.316953 413.852189 
L 438.525227 412.418467 
L 439.733501 411.393362 
L 440.941776 410.707452 
L 442.15005 410.326726 
L 443.358324 410.241154 
L 444.566598 410.461687 
L 445.774872 411.023568 
L 446.983146 411.998311 
L 448.19142 413.524496 
L 449.399695 415.89421 
L 450.607969 419.871585 
L 451.816243 428.968761 
L 453.024517 429.072836 
L 454.232791 419.20834 
L 455.441065 414.658102 
L 456.649339 411.743113 
L 457.857614 409.680467 
L 459.065888 408.172835 
L 460.274162 407.079508 
L 461.482436 406.327861 
L 462.69071 405.881932 
L 463.898984 405.730194 
L 465.107259 405.882097 
L 466.315533 406.370931 
L 467.523807 407.265007 
L 468.732081 408.696511 
L 469.940355 410.941496 
L 471.148629 414.707159 
L 472.356903 423.034897 
L 473.565178 425.506192 
L 474.773452 414.663808 
L 475.981726 409.880449 
L 477.19 406.828659 
L 478.398274 404.65937 
L 479.606548 403.057471 
L 480.814822 401.875314 
L 482.023097 401.036859 
L 483.231371 400.504072 
L 484.439645 400.263858 
L 485.647919 400.324127 
L 486.856193 400.716207 
L 488.064467 401.505278 
L 489.272741 402.817388 
L 490.481016 404.913553 
L 491.68929 408.449349 
L 492.897564 416.080869 
L 494.105838 421.018881 
L 495.314112 408.942881 
L 496.522386 403.879447 
L 497.730661 400.652946 
L 498.938935 398.339885 
L 500.147209 396.605794 
L 501.355483 395.295564 
L 502.563757 394.329466 
L 503.772031 393.667218 
L 504.980305 393.294009 
L 506.18858 393.216085 
L 507.396854 393.462713 
L 508.605128 394.095905 
L 509.813402 395.235731 
L 511.021676 397.129051 
L 512.22995 400.384709 
L 514.646499 414.912809 
L 515.854773 401.217419 
L 517.063047 395.784611 
L 518.271321 392.300401 
L 519.479595 389.757764 
L 520.687869 387.800989 
L 521.896143 386.266606 
L 523.104418 385.070499 
L 524.312692 384.169448 
L 525.520966 383.546194 
L 526.72924 383.204512 
L 527.937514 383.170725 
L 529.145788 383.502725 
L 530.354063 384.313692 
L 531.562337 385.835911 
L 532.770611 388.634505 
L 533.978885 394.782576 
L 535.187159 405.18196 
L 536.395433 389.136101 
L 537.603707 383.047487 
L 538.811982 379.000473 
L 540.020256 375.889641 
L 541.22853 373.329855 
L 542.436804 371.140286 
L 543.645078 369.221047 
L 546.061626 365.969389 
L 548.478175 363.287475 
L 550.894723 361.027871 
L 553.311271 359.104135 
L 555.72782 357.460996 
L 558.144368 356.060949 
L 560.560916 354.87749 
L 562.977464 353.891376 
L 565.394013 353.088438 
L 567.810561 352.458224 
L 570.227109 351.993141 
L 572.643658 351.687901 
L 575.060206 351.539173 
L 577.476754 351.545368 
L 579.893303 351.706554 
L 582.309851 352.024449 
L 584.726399 352.502535 
L 587.142947 353.146266 
L 589.559496 353.96344 
L 591.976044 354.964767 
L 594.392592 356.164762 
L 596.809141 357.583149 
L 599.225689 359.247142 
L 601.642237 361.195353 
L 604.058786 363.484913 
L 606.475334 366.205685 
L 608.891882 369.512258 
L 610.100156 371.469722 
L 611.30843 373.710153 
L 612.516705 376.342459 
L 613.724979 379.567966 
L 614.933253 383.830703 
L 616.141527 390.503289 
L 617.349801 417.201143 
L 618.558075 393.330059 
L 619.766349 388.056945 
L 620.974624 385.529626 
L 622.182898 384.144955 
L 623.391172 383.421207 
L 624.599446 383.15284 
L 625.80772 383.238149 
L 627.015994 383.625306 
L 628.224268 384.291918 
L 629.432543 385.23746 
L 630.640817 386.482741 
L 631.849091 388.076006 
L 633.057365 390.110229 
L 634.265639 392.767978 
L 635.473913 396.457912 
L 636.682188 402.415082 
L 637.890462 421.860958 
L 639.098736 405.726439 
L 640.30701 399.739435 
L 641.515284 396.768216 
L 642.723558 395.017084 
L 643.931832 393.966887 
L 645.140107 393.398763 
L 646.348381 393.204452 
L 647.556655 393.328083 
L 648.764929 393.744278 
L 649.973203 394.449913 
L 651.181477 395.463081 
L 652.389751 396.828577 
L 653.598026 398.633889 
L 654.8063 401.050506 
L 656.014574 404.457044 
L 657.222848 409.956542 
L 658.431122 425.27966 
L 659.639396 414.377628 
L 660.84767 407.796693 
L 662.055945 404.54489 
L 663.264219 402.586633 
L 664.472493 401.359834 
L 665.680767 400.631645 
L 666.889041 400.287621 
L 668.097315 400.268463 
L 669.305589 400.54643 
L 670.513864 401.116325 
L 671.722138 401.99391 
L 672.930412 403.220652 
L 674.138686 404.878215 
L 675.34696 407.125588 
L 676.555234 410.306696 
L 677.763509 415.374462 
L 678.971783 427.352196 
L 680.180057 421.282497 
L 681.388331 414.110778 
L 682.596605 410.610547 
L 683.804879 408.48666 
L 685.013153 407.126783 
L 686.221428 406.281607 
L 687.429702 405.829457 
L 688.637976 405.707055 
L 689.84625 405.883907 
L 691.054524 406.352335 
L 692.262798 407.12518 
L 693.471072 408.239556 
L 694.679347 409.769255 
L 695.887621 411.856057 
L 697.095895 414.795911 
L 698.304169 419.339584 
L 699.512443 428.124501 
L 700.720717 426.766274 
L 701.928991 419.385098 
L 703.137266 415.659009 
L 704.34554 413.380671 
L 705.553814 411.899333 
L 706.762088 410.949223 
L 707.970362 410.400637 
L 709.178636 410.185537 
L 710.386911 410.26987 
L 711.595185 410.642482 
L 712.803459 411.311818 
L 714.011733 412.308147 
L 715.220007 413.692613 
L 716.428281 415.579301 
L 717.636555 418.188898 
L 718.84483 421.986362 
L 720.053104 427.775833 
L 721.261378 429.445447 
L 722.469652 423.766865 
L 723.677926 420.007078 
L 724.8862 417.608866 
L 726.094474 416.012561 
L 727.302749 414.956029 
L 728.511023 414.305616 
L 729.719297 413.98896 
L 730.927571 413.967593 
L 732.135845 414.225133 
L 733.344119 414.762711 
L 734.552393 415.598798 
L 735.760668 416.772967 
L 736.968942 418.354455 
L 738.177216 420.455382 
L 739.38549 423.226444 
L 740.593764 426.599185 
L 741.802038 428.59356 
L 743.010312 426.561977 
L 744.218587 423.607617 
L 745.426861 421.308737 
L 746.635135 419.656738 
L 747.843409 418.500585 
L 749.051683 417.73203 
L 750.259957 417.283065 
L 751.468232 417.112498 
L 752.676506 417.197169 
L 753.88478 417.527041 
L 755.093054 418.102584 
L 756.301328 418.93316 
L 757.509602 420.034544 
L 758.717876 421.420674 
L 762.342699 426.286807 
L 763.550973 426.612323 
L 764.759247 425.697479 
L 767.175795 422.863353 
L 768.38407 421.704132 
L 769.592344 420.810746 
L 770.800618 420.166137 
L 772.008892 419.74576 
L 773.217166 419.528024 
L 774.42544 419.49631 
L 775.633714 419.638664 
L 776.841989 419.946824 
L 778.050263 420.414826 
L 779.258537 421.03673 
L 781.675085 422.688367 
L 784.091634 424.557115 
L 785.299908 425.252027 
L 786.508182 425.517304 
L 786.508182 425.517304 
" style="fill:none;stroke:#1f78b4;stroke-linecap:square;stroke-width:3.5;"/>
   </g>
   <g id="line2d_108">
    <path clip-path="url(#pda877511c0)" d="M 167.871818 447.565553 
L 169.080092 447.685541 
L 170.288366 448.049061 
L 171.496641 448.666301 
L 172.704915 449.551565 
L 173.913189 450.713802 
L 176.329737 453.625787 
L 177.538011 454.756117 
L 178.746286 454.845184 
L 179.95456 453.825773 
L 182.371108 450.903934 
L 183.579382 449.703977 
L 184.787656 448.780378 
L 185.99593 448.126616 
L 187.204205 447.728217 
L 188.412479 447.574057 
L 189.620753 447.659403 
L 190.829027 447.986506 
L 192.037301 448.564176 
L 193.245575 449.405554 
L 194.453849 450.519895 
L 198.078672 454.565083 
L 199.286946 454.82082 
L 200.49522 453.947661 
L 202.911768 451.078472 
L 204.120043 449.855012 
L 205.328317 448.901609 
L 206.536591 448.216683 
L 207.744865 447.786858 
L 208.953139 447.600691 
L 210.161413 447.652517 
L 211.369687 447.943256 
L 212.577962 448.480022 
L 213.786236 449.273973 
L 214.99451 450.332849 
L 218.619332 454.285544 
L 219.827607 454.675329 
L 221.035881 453.969065 
L 224.660703 449.996322 
L 225.868977 449.02587 
L 227.077251 448.318308 
L 228.285526 447.862977 
L 229.4938 447.648963 
L 230.702074 447.670058 
L 231.910348 447.925921 
L 233.118622 448.421703 
L 234.326896 449.16583 
L 235.53517 450.162852 
L 239.159993 453.93003 
L 240.368267 454.404757 
L 241.576541 453.867241 
L 246.409638 449.149161 
L 247.617912 448.431928 
L 248.826186 447.960368 
L 250.03446 447.725225 
L 251.242734 447.720304 
L 252.451009 447.944136 
L 253.659283 448.399635 
L 254.867557 449.091687 
L 256.075831 450.019925 
L 259.700653 453.506401 
L 260.908928 454.006677 
L 262.117202 453.620276 
L 263.325476 452.584292 
L 265.742024 450.207594 
L 266.950298 449.267002 
L 268.158572 448.559364 
L 269.366847 448.085603 
L 270.575121 447.839519 
L 271.783395 447.815648 
L 272.991669 448.011547 
L 274.199943 448.427506 
L 275.408217 449.063806 
L 276.616491 449.913191 
L 280.241314 453.013112 
L 281.449588 453.47588 
L 282.657862 453.207443 
L 283.866136 452.359023 
L 286.282685 450.248428 
L 287.490959 449.373645 
L 288.699233 448.703911 
L 289.907507 448.248892 
L 291.115781 448.006942 
L 292.324055 447.974098 
L 293.53233 448.146986 
L 294.740604 448.522556 
L 295.948878 449.094947 
L 297.157152 449.847663 
L 300.781974 452.432924 
L 301.990249 452.798781 
L 303.198523 452.60828 
L 304.406797 451.957114 
L 308.031619 449.461031 
L 309.239893 448.870468 
L 310.448168 448.465407 
L 311.656442 448.249657 
L 312.864716 448.221166 
L 314.07299 448.375175 
L 315.281264 448.703899 
L 316.489538 449.19314 
L 318.906087 450.51535 
L 320.114361 451.198897 
L 321.322635 451.725373 
L 322.530909 451.948465 
L 323.739183 451.801102 
L 324.947457 451.347013 
L 328.57228 449.51739 
L 329.780554 449.065566 
L 330.988828 448.75707 
L 332.197102 448.599493 
L 333.405376 448.591332 
L 334.613651 448.724517 
L 337.030199 449.345462 
L 340.655021 450.580119 
L 341.863295 450.822769 
L 343.07157 450.885071 
L 344.279844 450.764072 
L 346.696392 450.168604 
L 349.11294 449.52564 
L 351.529489 449.15427 
L 353.946037 449.125237 
L 357.570859 449.477027 
L 359.987408 449.666255 
L 362.403956 449.644905 
L 367.237053 449.380889 
L 369.653601 449.462646 
L 374.486697 449.848614 
L 376.903246 449.643738 
L 379.319794 449.060084 
L 381.736342 448.401878 
L 384.152891 448.014448 
L 385.361165 447.995625 
L 386.569439 448.115466 
L 387.777713 448.380164 
L 390.194261 449.303453 
L 392.61081 450.404771 
L 393.819084 450.725318 
L 395.027358 450.696972 
L 396.235632 450.284437 
L 398.65218 448.78512 
L 401.068729 447.330401 
L 402.277003 446.8181 
L 403.485277 446.490323 
L 404.693551 446.361855 
L 405.901825 446.44389 
L 407.110099 446.747178 
L 408.318374 447.282029 
L 409.526648 448.053408 
L 411.943196 450.175337 
L 413.15147 451.216305 
L 414.359744 451.742322 
L 415.568018 451.40283 
L 416.776293 450.353711 
L 419.192841 447.81228 
L 420.401115 446.778954 
L 421.609389 445.989737 
L 422.817663 445.450381 
L 424.025937 445.157989 
L 425.234212 445.110785 
L 426.442486 445.311633 
L 427.65076 445.769086 
L 428.859034 446.496499 
L 430.067308 447.506759 
L 431.275582 448.793395 
L 433.692131 451.640198 
L 434.900405 452.278304 
L 436.108679 451.758575 
L 439.733501 447.862847 
L 440.941776 446.921893 
L 442.15005 446.263757 
L 443.358324 445.873577 
L 444.566598 445.733753 
L 445.774872 445.82836 
L 446.983146 446.142261 
L 448.19142 446.657283 
L 450.607969 448.155932 
L 453.024517 449.759371 
L 454.232791 450.278112 
L 455.441065 450.473544 
L 456.649339 450.379305 
L 463.898984 448.811932 
L 465.107259 448.249106 
L 466.315533 447.426917 
L 468.732081 445.577214 
L 469.940355 445.048057 
L 471.148629 445.244668 
L 472.356903 446.905837 
L 473.565178 452.661194 
L 474.773452 451.971847 
L 475.981726 440.406268 
L 477.19 433.687486 
L 478.398274 428.608101 
L 479.606548 424.375863 
L 480.814822 420.678203 
L 483.231371 414.326535 
L 485.647919 408.913194 
L 488.064467 404.156942 
L 490.481016 399.903977 
L 492.897564 396.058443 
L 495.314112 392.555228 
L 497.730661 389.347354 
L 500.147209 386.39941 
L 503.772031 382.40606 
L 507.396854 378.865407 
L 511.021676 375.724251 
L 514.646499 372.941505 
L 518.271321 370.484487 
L 521.896143 368.326488 
L 525.520966 366.445067 
L 529.145788 364.820782 
L 532.770611 363.43617 
L 536.395433 362.274883 
L 540.020256 361.320904 
L 543.645078 360.557813 
L 548.478175 359.806808 
L 553.311271 359.317521 
L 558.144368 359.037004 
L 565.394013 358.878755 
L 583.518125 358.864333 
L 591.976044 358.962164 
L 598.017415 359.243158 
L 602.850511 359.683859 
L 607.683608 360.375788 
L 611.30843 361.088527 
L 614.933253 361.987456 
L 618.558075 363.089224 
L 622.182898 364.409865 
L 625.80772 365.965519 
L 629.432543 367.773195 
L 633.057365 369.851615 
L 636.682188 372.222182 
L 640.30701 374.910181 
L 643.931832 377.946368 
L 647.556655 381.369229 
L 651.181477 385.228385 
L 653.598026 388.07534 
L 656.014574 391.170682 
L 658.431122 394.54705 
L 660.84767 398.247481 
L 663.264219 402.331047 
L 665.680767 406.8833 
L 668.097315 412.03771 
L 670.513864 418.026531 
L 671.722138 421.46501 
L 672.930412 425.331238 
L 674.138686 429.820385 
L 675.34696 435.344737 
L 676.555234 443.076376 
L 677.763509 458.687099 
L 678.971783 450.285349 
L 680.180057 446.592974 
L 681.388331 445.840205 
L 682.596605 446.349831 
L 685.013153 448.771544 
L 686.221428 449.543694 
L 687.429702 449.496333 
L 691.054524 447.786049 
L 692.262798 447.532725 
L 693.471072 447.505743 
L 694.679347 447.667654 
L 699.512443 448.861693 
L 700.720717 448.905735 
L 701.928991 448.780201 
L 706.762088 447.916437 
L 707.970362 447.931485 
L 709.178636 448.107421 
L 710.386911 448.449162 
L 712.803459 449.54142 
L 714.011733 450.154227 
L 715.220007 450.630576 
L 716.428281 450.799847 
L 717.636555 450.572404 
L 718.84483 450.013677 
L 722.469652 447.919446 
L 723.677926 447.43425 
L 724.8862 447.125996 
L 726.094474 447.004776 
L 727.302749 447.07292 
L 728.511023 447.327795 
L 729.719297 447.760814 
L 732.135845 449.061525 
L 734.552393 450.468552 
L 735.760668 450.875528 
L 736.968942 450.912588 
L 738.177216 450.592298 
L 743.010312 448.410881 
L 744.218587 448.101142 
L 745.426861 447.946045 
L 746.635135 447.944516 
L 747.843409 448.087717 
L 750.259957 448.733709 
L 753.88478 450.011373 
L 755.093054 450.277411 
L 756.301328 450.373321 
L 757.509602 450.2961 
L 759.926151 449.801284 
L 762.342699 449.244661 
L 764.759247 448.930145 
L 767.175795 448.939566 
L 769.592344 449.211339 
L 774.42544 449.88178 
L 776.841989 449.947151 
L 780.466811 449.678355 
L 784.091634 449.355105 
L 786.508182 449.279646 
L 786.508182 449.279646 
" style="fill:none;stroke:#b2df8a;stroke-linecap:square;stroke-width:3.5;"/>
   </g>
   <g id="line2d_109">
    <path clip-path="url(#pda877511c0)" d="M 580.296061 464.34 
L 580.296061 339.976176 
" style="fill:none;stroke:#ff0000;stroke-dasharray:12.95,5.6;stroke-dashoffset:0;stroke-width:3.5;"/>
   </g>
   <g id="patch_8">
    <path d="M 136.94 464.34 
L 136.94 339.976176 
" style="fill:none;stroke:#000000;stroke-linecap:square;stroke-linejoin:miter;stroke-width:0.8;"/>
   </g>
   <g id="patch_9">
    <path d="M 817.44 464.34 
L 817.44 339.976176 
" style="fill:none;stroke:#000000;stroke-linecap:square;stroke-linejoin:miter;stroke-width:0.8;"/>
   </g>
   <g id="patch_10">
    <path d="M 136.94 464.34 
L 817.44 464.34 
" style="fill:none;stroke:#000000;stroke-linecap:square;stroke-linejoin:miter;stroke-width:0.8;"/>
   </g>
   <g id="patch_11">
    <path d="M 136.94 339.976176 
L 817.44 339.976176 
" style="fill:none;stroke:#000000;stroke-linecap:square;stroke-linejoin:miter;stroke-width:0.8;"/>
   </g>
   <g id="legend_1">
    <g id="patch_12">
     <path d="M 143.34 337.4889 
L 811.04 337.4889 
Q 817.44 337.4889 817.44 331.0889 
L 817.44 288.9439 
Q 817.44 282.5439 811.04 282.5439 
L 143.34 282.5439 
Q 136.94 282.5439 136.94 288.9439 
L 136.94 331.0889 
Q 136.94 337.4889 143.34 337.4889 
z
" style="fill:#ffffff;opacity:0.8;stroke:#cccccc;stroke-linejoin:miter;"/>
    </g>
    <g id="line2d_110">
     <path d="M 149.74 306.5439 
L 213.74 306.5439 
" style="fill:none;stroke:#a6cee3;stroke-linecap:square;stroke-width:3.5;"/>
    </g>
    <g id="line2d_111"/>
    <g id="text_23">
     <!-- boxcar -->
     <defs>
      <path d="M 47 23.09375 
Q 47 12.59375 40.75 5.796875 
Q 34.5 -1 24.5 -1 
Q 15.296875 -1 9.09375 5.75 
Q 2.90625 12.5 2.90625 22.796875 
Q 2.90625 33.203125 9.09375 39.59375 
Q 15.296875 46 25.40625 46 
Q 34.703125 46 40.84375 39.640625 
Q 47 33.296875 47 23.09375 
z
M 38 20.40625 
Q 38 31.796875 33 38.203125 
Q 29 43.203125 23.5 43.203125 
Q 18.296875 43.203125 15.09375 38.953125 
Q 11.90625 34.703125 11.90625 27.296875 
Q 11.90625 14.5 17.203125 6.796875 
Q 20.59375 1.796875 26.203125 1.796875 
Q 31.703125 1.796875 34.84375 6.75 
Q 38 11.703125 38 20.40625 
z
" id="STIXGeneral-Regular-6f"/>
      <path d="M 47.90625 0 
L 27.796875 0 
L 27.796875 1.5 
Q 30.296875 1.703125 31.046875 2.140625 
Q 31.796875 2.59375 31.796875 3.90625 
Q 31.796875 4.796875 31.203125 5.703125 
L 22.09375 19.703125 
L 14.203125 7.40625 
Q 12.203125 4.296875 12.203125 3.296875 
Q 12.203125 1.5 16.203125 1.5 
L 16.203125 0 
L 1.703125 0 
L 1.703125 1.5 
Q 4.203125 1.703125 5.546875 2.640625 
Q 6.90625 3.59375 9 6.59375 
L 20.40625 23.09375 
L 11 37.5 
Q 8.703125 41 7.09375 42.25 
Q 5.5 43.5 3.296875 43.5 
L 2.40625 43.5 
L 2.40625 45 
L 23.09375 45 
L 23.09375 43.5 
Q 18.796875 43.40625 18.796875 41.296875 
Q 18.796875 39.203125 23.40625 32.40625 
Q 24.703125 30.59375 24.796875 30.40625 
Q 25.296875 31.09375 27.796875 34.796875 
Q 28.296875 35.703125 29 36.703125 
Q 29.703125 37.703125 30.046875 38.296875 
Q 30.40625 38.90625 30.796875 39.5 
Q 31.203125 40.09375 31.34375 40.546875 
Q 31.5 41 31.5 41.296875 
Q 31.5 43.203125 27.5 43.5 
L 27.5 45 
L 43.296875 45 
L 43.296875 43.5 
Q 38.203125 43.296875 35.203125 39.09375 
L 26.90625 27.09375 
L 39.703125 7.5 
Q 43.59375 1.5 47.90625 1.5 
z
" id="STIXGeneral-Regular-78"/>
      <path d="M 44.203125 6.59375 
L 44.203125 3.796875 
Q 40.40625 -1 35.203125 -1 
Q 29.5 -1 28.796875 6.296875 
L 28.703125 6.296875 
Q 22.296875 -1 14.203125 -1 
Q 9.5 -1 6.59375 1.75 
Q 3.703125 4.5 3.703125 9.40625 
Q 3.703125 16.40625 10.703125 21.09375 
Q 15.5 24.296875 28.703125 29.203125 
L 28.703125 34.59375 
Q 28.703125 39.09375 26.546875 41.34375 
Q 24.40625 43.59375 20.90625 43.59375 
Q 17.90625 43.59375 15.90625 42.140625 
Q 13.90625 40.703125 13.90625 38.703125 
Q 13.90625 37.796875 14.203125 36.6875 
Q 14.5 35.59375 14.5 34.5 
Q 14.5 33 13.140625 31.703125 
Q 11.796875 30.40625 9.90625 30.40625 
Q 8.203125 30.40625 6.890625 31.703125 
Q 5.59375 33 5.59375 35 
Q 5.59375 39.796875 10.703125 43 
Q 15.40625 46 22.203125 46 
Q 30.296875 46 34 41.5 
Q 35.796875 39.40625 36.296875 37.25 
Q 36.796875 35.09375 36.796875 30.40625 
L 36.796875 11.296875 
Q 36.796875 4.703125 39.90625 4.703125 
Q 41.90625 4.703125 44.203125 6.59375 
z
M 28.703125 12.703125 
L 28.703125 26.796875 
Q 19.5 23.59375 15.90625 20.203125 
Q 12.5 17.09375 12.5 12.5 
Q 12.5 8.703125 14.390625 6.75 
Q 16.296875 4.796875 19.40625 4.796875 
Q 22.703125 4.796875 25.203125 6.40625 
Q 27.296875 7.90625 28 9.203125 
Q 28.703125 10.5 28.703125 12.703125 
z
" id="STIXGeneral-Regular-61"/>
     </defs>
     <g transform="translate(239.34 317.7439)scale(0.32 -0.32)">
      <use xlink:href="#STIXGeneral-Regular-62"/>
      <use x="49.999985" xlink:href="#STIXGeneral-Regular-6f"/>
      <use x="99.999969" xlink:href="#STIXGeneral-Regular-78"/>
      <use x="149.999954" xlink:href="#STIXGeneral-Regular-63"/>
      <use x="194.399948" xlink:href="#STIXGeneral-Regular-61"/>
      <use x="238.799942" xlink:href="#STIXGeneral-Regular-72"/>
     </g>
    </g>
    <g id="line2d_112">
     <path d="M 403.0475 306.5439 
L 467.0475 306.5439 
" style="fill:none;stroke:#1f78b4;stroke-linecap:square;stroke-width:3.5;"/>
    </g>
    <g id="line2d_113"/>
    <g id="text_24">
     <!-- hann -->
     <defs>
      <path d="M 48.703125 0 
L 27.5 0 
L 27.5 1.5 
Q 31.90625 2 33.09375 3.5 
Q 34.296875 5 34.296875 10.203125 
L 34.296875 30 
Q 34.296875 40.59375 26.90625 40.59375 
Q 23.90625 40.59375 21.40625 39.1875 
Q 18.90625 37.796875 15.703125 34.296875 
L 15.703125 10.203125 
Q 15.703125 5 16.890625 3.5 
Q 18.09375 2 22.5 1.5 
L 22.5 0 
L 0.90625 0 
L 0.90625 1.5 
Q 5.203125 2.09375 6.25 3.5 
Q 7.296875 4.90625 7.296875 10.203125 
L 7.296875 57.296875 
Q 7.296875 60.5 6.34375 61.453125 
Q 5.40625 62.40625 2.203125 62.40625 
Q 1.296875 62.40625 1 62.296875 
L 1 63.90625 
L 3.703125 64.703125 
Q 11.40625 67 15.203125 68.296875 
L 15.703125 68 
L 15.703125 37.59375 
Q 19.203125 42.09375 22.59375 44.046875 
Q 26 46 30.40625 46 
Q 42.703125 46 42.703125 30.09375 
L 42.703125 10.203125 
Q 42.703125 5 43.640625 3.640625 
Q 44.59375 2.296875 48.703125 1.5 
z
" id="STIXGeneral-Regular-68"/>
     </defs>
     <g transform="translate(492.6475 317.7439)scale(0.32 -0.32)">
      <use xlink:href="#STIXGeneral-Regular-68"/>
      <use x="49.999985" xlink:href="#STIXGeneral-Regular-61"/>
      <use x="94.399979" xlink:href="#STIXGeneral-Regular-6e"/>
      <use x="144.399963" xlink:href="#STIXGeneral-Regular-6e"/>
     </g>
    </g>
    <g id="line2d_114">
     <path d="M 631.49 306.5439 
L 695.49 306.5439 
" style="fill:none;stroke:#b2df8a;stroke-linecap:square;stroke-width:3.5;"/>
    </g>
    <g id="line2d_115"/>
    <g id="text_25">
     <!-- flattop -->
     <defs>
      <path d="M 2.09375 45 
L 10.296875 45 
Q 10.40625 51 11.09375 54.34375 
Q 11.796875 57.703125 13.796875 61.09375 
Q 18 68.296875 27.90625 68.296875 
Q 32.40625 68.296875 35.34375 66.546875 
Q 38.296875 64.796875 38.296875 62.09375 
Q 38.296875 60.40625 37.09375 59.203125 
Q 35.90625 58 34.09375 58 
Q 31.703125 58 29.59375 61.59375 
Q 27.203125 65.5 24.296875 65.5 
Q 18.703125 65.5 18.703125 56.59375 
L 18.703125 45 
L 30.90625 45 
L 30.90625 41.796875 
L 18.703125 41.796875 
L 18.703125 10.40625 
Q 18.703125 4.796875 20.296875 3.25 
Q 21.90625 1.703125 28 1.5 
L 28 0 
L 2 0 
L 2 1.5 
Q 7.40625 1.796875 8.84375 3.34375 
Q 10.296875 4.90625 10.296875 10.40625 
L 10.296875 41.796875 
L 2.09375 41.796875 
z
" id="STIXGeneral-Regular-66"/>
     </defs>
     <g transform="translate(721.09 317.7439)scale(0.32 -0.32)">
      <use xlink:href="#STIXGeneral-Regular-66"/>
      <use x="33.299988" xlink:href="#STIXGeneral-Regular-6c"/>
      <use x="61.099976" xlink:href="#STIXGeneral-Regular-61"/>
      <use x="105.499969" xlink:href="#STIXGeneral-Regular-74"/>
      <use x="133.299957" xlink:href="#STIXGeneral-Regular-74"/>
      <use x="161.099945" xlink:href="#STIXGeneral-Regular-6f"/>
      <use x="211.09993" xlink:href="#STIXGeneral-Regular-70"/>
     </g>
    </g>
   </g>
  </g>
 </g>
 <defs>
  <clipPath id="p84cd39f7c9">
   <rect height="124.363824" width="680.5" x="136.94" y="46.56"/>
  </clipPath>
  <clipPath id="pda877511c0">
   <rect height="124.363824" width="680.5" x="136.94" y="339.976176"/>
  </clipPath>
 </defs>
</svg>
